<?xml version="1.0" encoding="UTF-8" standalone="no"?>
<!-- source: https://publicdomainvectors.org/en/free-clipart/Bunting-banner-flags/18908.html -->
<svg
    xmlns="http://www.w3.org/2000/svg"
    viewBox="0 0 720.31 325.68"
    version="1.1"
  >
  <g
      id="layer1"
      transform="translate(23.642 -191.39)"
    >
    <g
        id="g4450"
        transform="matrix(-1 0 0 1 -1073.2 231.83)"
      >
      <path
          id="path4327"
          d="m-1348.6 57.519 81.15 43.828-29.066-87.532-26.045 21.854-26.04 21.85z"
          style="fill:#ff744a"
      />
      <path
          id="path4327-2"
          d="m-1642.6 192.08 55.025 74.017 10.651-91.615-32.841 8.7997-32.835 8.798z"
          style="fill:#df2b50"
      />
      <path
          id="path4327-9"
          d="m-1739.4 202.79 41.336 82.448 26.398-88.374-33.87 2.9632-33.864 2.9627z"
          style="fill:#16cbf0"
      />
      <path
          id="path4327-2-7"
          d="m-1547 163.34 63.635 66.76-0.5937-92.23-31.524 12.736-31.518 12.734z"
          style="fill:#ffd321"
      />
      <path
          id="path4327-2-0-3"
          d="m-1451.5 118.03 72.307 57.254-13.424-91.25-29.444 17-29.439 16.997z"
          style="fill:#2e0c3b"
      />
      <path
          id="path4327-2-2"
          d="m-1138.5 92.124-22.894 89.343 77.901-49.378-27.506-19.984-27.501-19.981z"
          style="fill:#df2b50"
      />
      <path
          id="path4327-9-6"
          d="m-1207.7 17.896-40.969 82.631 86.465-32.103-22.75-25.266-22.746-25.262z"
          style="fill:#16cbf0"
      />
      <path
          id="path4409-7"
          d="m-1769.8 204.55c321.62-1.6291 522.39-240 522.39-240s90.413 135.71 196.61 185.71"
          style="stroke:#453427;stroke-width:6;fill:none"
      />
    </g>
  </g>
</svg>
