<?xml version="1.0" encoding="UTF-8"?>
<svg width="73.634mm" height="73.18mm" version="1.1" viewBox="0 0 73.634 73.18" xmlns="http://www.w3.org/2000/svg">
 <g transform="translate(-45.381 -32.274)">
  <g class="st10" transform="matrix(.26458 0 0 .26458 -350.7 10.552)" opacity=".5">
   <path class="st11" d="m1637.2 82.6h-0.5c-76.6 0-138.6 61.764-138.6 137.97s62 137.97 138.6 137.97h0.5c76.3-0.29886 138.1-61.964 138.1-137.97 0.1-76.11-61.7-137.77-138.1-137.97z" stroke-width=".9981"/>
   <path class="st12" d="m1766.1 170.44s-5.6376 0.79679-7.2484 0.0996c-1.2081-0.498-3.1208-2.7888-3.6242-3.984-0.7046-1.494 0.7047-5.6771-0.7046-6.3743-0.9061-0.49799-3.1209 1.1952-3.7249 1.992-1.2081 1.5936-2.0134 7.7687-2.0134 7.7687s-4.631-3.8843-5.4364-5.6771c-0.5033-1.1952 0.4027-4.1831-0.2013-5.3783-0.7047-1.494-3.9263-3.2868-5.235-4.4819-0.5033-0.49799-1.3087-1.5936-1.9128-1.8924-1.4093-0.59759-5.1342-1.1952-6.0403 0-0.8053 1.1952 1.0067 4.2827 1.9128 5.3783 1.3087 1.5936 5.6376 2.7888 7.2484 3.984 0.4026 0.29879 1.3087 0.89638 1.3087 1.2948-0.1006 0.39839-1.3087 0.39839-1.6107 0.79679-0.6041 0.89639 0.604 3.3864 0.1006 4.1831-0.5033 0.79679-2.6174 1.3944-3.5235 1.494-0.8053 0.0996-2.4161-0.1992-3.0201-0.69719-0.7047-0.49799-2.3155-1.992-1.9128-2.6892 0.6041-1.0956 3.8255 0.79679 4.9329 0.29879 0.5034-0.1992 1.4095-1.1952 1.3088-1.7928-0.604-3.1872-8.9599-4.5815-10.873-7.2707-0.5033-0.69719-0.1006-2.8884-0.8053-3.0876-1.4094-0.39839-3.0202 3.5856-4.4296 3.984-1.1074 0.29879-3.4228-1.2948-4.5302-0.89639-2.6175 0.99598-6.8457 8.7647-6.8457 8.7647s-0.6041 2.8884-1.3087 3.486c-0.9061 0.69719-3.3223 0.29879-4.329 0.39839-1.6107 0.0996-4.9329 0.3984-6.443 0-1.0067-0.1992-3.2215-0.89639-3.8255-1.7928-1.2081-1.494-1.3087-5.6771-1.1074-7.5695 0.1007-0.99598 1.4094-3.5856 1.4094-3.5856s4.9329-1.3944 6.5436-1.3944c1.8122 0 5.6377 2.3904 7.1478 1.3944 0.8054-0.59759 1.4094-3.0876 0.9061-3.8843-0.4027-0.69719-2.6175-0.0996-3.0202-0.69719-0.9061-1.2948-0.1007-4.9799 1.0067-6.0755 1.3088-1.2948 5.6376-0.1992 7.2484-1.0956 1.8121-1.0956 3.2215-5.8763 5.0336-7.0715 1.1074-0.6972 3.9263-0.89639 5.235-0.89639 1.208 0 3.5235 0.59759 4.7316 0.69719 0.4027 0 1.4094 0.29879 1.7114 0 1.1073-1.2948 0.5034-5.7767-0.9061-6.6731-1.3087-0.79679-4.3289 2.8884-5.7383 2.2908-1.2081-0.49799-0.906-4.0835-2.0134-4.9799-0.7048-0.49799-3.3222-0.49799-3.3222-0.49799s-0.9061-2.5896-0.6041-3.3864c0.3021-0.99598 1.9128-2.3904 2.7182-2.8884 1.4094-0.99598 5.1343-1.3944 6.443-2.49 0.6041-0.59759 1.6108-2.8884 1.6108-2.8884-24.564-21.414-56.678-34.362-91.914-34.561h-0.3021c-30.604 0-58.994 9.8603-82.048 26.493 0 0 5.3356-0.49799 7.047-0.0996 0.9061 0.1992 2.3155 1.3944 3.1209 1.6932 1.4094 0.49799 4.8322 0.1992 5.9396 1.2948 0.4027 0.39839 0 1.8924 0.5034 2.2908 1.8121 1.494 8.0537 2.2908 9.3624 0.29879 0.5034-0.69719-0.6039-2.49-1.3087-2.988-1.7114-1.1952-7.6511 1.6932-8.3557-0.1992-0.2014-0.59759 1.8121-1.1952 2.0134-1.7928 0.1007-0.59759-0.2013-1.8924-0.7047-2.1912-1.5101-1.0956-6.9464 1.7928-7.5504 0-0.8054-2.3904 5.839-5.2787 8.2551-6.0755 1.9127-0.59759 6.141-0.89639 7.8524 0 1.4095 0.69719 2.3154 4.2827 3.7249 5.0795 1.3087 0.69719 4.7316 0.89639 6.141 0.29879 1.2081-0.39839 2.4161-3.3864 3.7249-3.5856 0.8053-0.0996 2.7181 0.5976 2.8188 1.3944 0.302 1.7928-3.4229 4.2827-5.1343 4.9799-1.5101 0.5976-7.0471 0.0996-6.7451 0.0996 0.3021 0-0.302 3.984 0.6041 4.7807 1.6107 1.3944 6.8457 0.99598 8.5571-0.1992 0.5034-0.39839 0.4027-1.8924 0.9061-2.2908 1.2081-0.89639 4.8322 0.59759 5.9397-0.29879 0.7046-0.5976 1.208-2.6892 0.7046-3.486-0.5034-0.69719-3.0202 0.1992-3.5235-0.59759-0.4026-0.69719 0.6041-2.49 1.2081-3.0876 0.5033-0.498 2.0134-0.69719 2.7181-0.79679 2.3154-0.2988 8.4565-1.6932 9.2618 0.49799 0.6041 1.5936-4.6308 2.988-5.1342 4.5815-0.3021 0.89638 0.2013 2.8884 0.8054 3.5856 1.0067 0.89638 4.3288 1.6932 5.3356 0.79678 1.208-1.0956-1.1074-5.0795-0.302-6.4739 0.7047-1.1952 3.7248-2.1912 5.1343-2.6892 2.2148-0.69719 6.8456-1.3944 9.0604-0.99598 2.8188 0.39839 7.8525 3.3864 10.47 4.5815 0.7047 0.2988 2.3155 0.59759 2.6175 1.1952 0.7047 0.99598-0.8054 3.9839 0 4.9799 0.7047 0.79679 3.7249 0.0996 4.2283 0.99598 0.5033 0.99599-1.1075 3.2868-2.1142 3.8844s-3.5235 0-4.7316 0c-0.302 0-0.9061-0.1992-1.2081 0-1.0067 0.69719-0.7047 3.8843-1.7114 4.4819-3.1208 1.5936-13.087 0.29879-13.49-3.1872-0.4027-2.988 10.268-2.6892 10.671-5.5775 0.1006-1.2948-2.8188-2.988-4.0269-3.3864-2.2147-0.69719-7.1477 0.0996-9.1611 1.1952-0.302 0.0996-0.5034 0.79679-0.8054 0.79679-0.1007 0-0.1007 0.19919-0.1007 0.19919-0.604 0.6972-1.8121 2.2908-2.6174 2.6892-1.0068 0.49799-3.7249-0.498-4.3289 0.39839-0.3021 0.3984 0 1.6932 0.302 2.1912 0.302 0.2988 1.3087 0.2988 1.5101 0.59759 0.1006 0.1992 0.1006 0.59759-0.1008 0.69719-0.604 0.59759-2.9194-0.0996-3.5235 0.498-0.4026 0.39839 0.1008 1.6932-0.302 1.992-0.604 0.59759-2.7181 0.69719-3.4229 0.1992-0.8053-0.69719 0.3021-3.486-0.6039-4.0836-1.3088-0.79679-4.631 1.1952-6.1411 1.7928-3.3221 1.3944-11.074 3.8843-12.483 7.1711-0.5034 1.1952 1.4094 5.0795 1.4094 5.0795l3.5235 2.2908s5.839-0.39839 6.9464 0.99599c1.3087 1.494-1.51 6.5735 0 7.8683 0.604 0.49799 2.5168 0 3.2215-0.49799 1.4094-0.99599 1.7115-4.9799 2.9196-6.0755 1.51-1.2948 6.2416-0.79679 7.4496-2.2908 1.4095-1.8924-1.1073-7.2707 0-9.3623 0.6041-1.0956 2.8189-2.7888 4.1276-3.0876 2.5168-0.49799 8.4565 0.29879 9.9666 2.2908 0.906 1.2948-1.7115 5.0795-0.7048 6.1751 0.4028 0.49799 2.0135 0.1992 2.7182 0 2.0134-0.49799 7.3491-3.5856 7.3491-3.5856s-0.7047 6.3743 0.302 8.1671c0.4026 0.59759 1.8121 1.0956 2.4161 1.494 0.7047 0.39839 2.5168 0.99598 2.9195 1.6932 0.6041 1.0956 0.5033 3.8844-0.2014 4.8803-0.4026 0.5976-2.2148 0.2988-2.6174 0.89639-0.5034 0.69719-0.5034 2.6892 0 3.3864 0.604 0.89639 3.4229 0.89639 4.0269 1.7928 0.4027 0.69719 0.5033 2.6892-0.1007 3.2868-0.3021 0.2988-1.4094 0.3984-1.8121 0.0996v-0.0996c-0.4027-0.39839-1.6108-0.49799-2.1141-0.69719-1.4095-0.39839-4.631-0.59759-5.6377-1.6932-0.4026-0.498 0.1007-2.0916-0.302-2.49-0.2013-0.69719 1.9128-0.89639 2.3154-1.494 0.3021-0.49799 0.3021-1.7928 0-2.2908-0.4026-0.49799-1.9127-0.89638-2.416-0.59759-0.5034 0.2988-0.2014 1.6932-0.6041 2.0916-0.8054 0.69719-3.2215 0.69719-4.2282 0.69719-0.1007 0-0.302-0.19919-0.4027-0.0996v0.19919c-0.2013 0.2988-1.1074 0.3984-1.51 0.1992-0.6041-0.2988-0.7048-1.992-1.2081-2.3904-0.3021-0.29879-1.0067-0.49799-1.4095-0.59759-0.7047-0.1992-2.3154-0.29879-3.0201 0-0.4027 0.0996-1.2081 0.69719-1.4095 1.0956-0.302 0.59759-0.4026 1.992 0 2.49 0.4028 0.59759 1.9128 0.69719 2.6176 0.89639 0.604 0.0996 2.5168-0.2988 2.6174 0.39839 0 0.1992-0.4026 0.1992-0.604 0.2988-0.7047 0.49799-1.5101 2.5896-2.3154 2.5896-0.4028 0-0.7048-1.0956-1.0067-1.2948-0.5034-0.29879-1.7115-0.69719-2.3156-0.59759-2.0134 0.49799-6.2416 3.6852-6.1409 5.7767 0 0.29879 0.8053 0.39839 0.8053 0.69719-0.2013 2.5896-7.047 3.3864-9.1611 4.9799-2.4162 1.8924-7.2484 6.0755-8.5571 8.8643-0.4028 0.89638-0.6041 3.9839-0.6041 3.9839s-6.6443 3.9839-8.6577 5.5775c-1.2081 0.99599-3.7249 2.8884-4.2283 4.2827-0.8054 1.992 2.2147 7.2707 0.5034 8.4659-1.3088 0.89639-5.9397-2.6892-5.9397-2.6892s0.906-4.0835 0-4.9799c-2.9195-2.8884-12.483-0.89639-16.51 0-2.3154 0.59759-8.5571 4.2827-8.5571 4.2827s-3.0201 4.9799-3.7249 6.7727c-0.5033 1.2948-1.6107 3.9839-1.51 5.3783 0.1006 1.3944 1.2081 4.3823 2.4161 5.1791 1.4094 0.99599 5.0336 1.1952 6.7451 0.79679 3.1207-0.69719 7.6511-8.1671 10.671-7.0715 0.906 0.29879 1.0067 2.5896 0.906 3.486-0.2013 1.6932-4.0269 4.5815-3.2215 6.0755 0.9061 1.7928 6.745-0.0996 8.1545 1.3944 2.1141 2.2908 0.8053 12.45 0.8053 12.45s8.4565 2.7888 11.175 1.8924c2.5168-0.89638 4.5303-7.2707 7.0471-8.0675 2.1141-0.69719 6.7451 0.59759 8.5571 1.6932 1.1074 0.69719 1.8121 3.5856 3.0202 4.1832 1.9128 0.89638 6.745 0.89638 8.2551-0.498 0.4027-0.39839-0.302-2.0916 0.2013-2.3904 1.1074-0.5976 3.6242 1.3944 4.5303 2.1912 1.812 1.5936 3.0201 6.7727 5.1343 7.8683 1.9127 1.0956 6.9464-0.99599 8.8591 0.0996 1.4094 0.79679 2.8189 4.0836 3.2215 5.6771 0.5034 1.6932-0.604 5.4779 0.5034 6.8723 1.0067 1.2948 4.7315 1.7928 6.2416 2.3904 0.9061 0.29879 2.5168 1.0956 3.5235 1.2948 3.0203 0.59759 9.6646-1.3944 12.282 0.0996 1.5101 0.79679 2.2148 4.7807 3.6241 5.8763 1.1075 0.89639 4.7316 0.498 5.4363 1.6932 0.6041 1.0956-0.5033 3.6852-1.0067 4.7807-1.0067 2.1912-5.0336 5.2787-5.9396 7.4699-1.6108 3.8844 0.302 12.948-1.7115 16.633-0.8053 1.494-3.7249 3.6852-5.4362 4.1831-1.9128 0.59759-6.2418-1.1952-8.0538-0.1992-1.2081 0.59759-2.3155 3.2868-2.6175 4.5815 0.2013 2.1912 2.4161 6.4739 2.0135 8.5655-0.2014 0.79679-1.5101 1.8924-2.0135 2.49-1.7114 2.0916-5.2349 6.2747-6.745 8.5655-0.8054 1.1952-1.7114 4.0836-2.8189 5.0795-1.7114 1.5936-8.2551 3.984-8.2551 3.984s-4.5302-0.1992-5.4363 0.79679c-0.4026 0.39839-0.5033 1.7928-0.2012 2.2908 0.604 0.79678 3.3221 0.29879 3.8255 1.0956 0.302 0.49799-0.2014 1.8924-0.5034 2.49-0.6041 0.99598-3.3221 2.0916-3.4229 3.2868-0.1006 0.79679 1.3087 2.1912 2.1142 2.5896 0.906 0.498 3.4228-0.59759 4.1275 0.0996 0.5034 0.59759-0.1006 2.3904-0.2014 3.1872-0.2012 0.79679-0.906 2.2908-1.1073 3.0876-0.2014 0.5976-0.604 1.8924-0.4027 2.49 0.7047 1.8924 5.537 3.1872 6.141 5.0795 0.2014 0.69719-0.2014 2.1912-0.8054 2.6892-1.7114 1.1952-6.3424 0.59759-8.3558-0.1992-2.5168-0.99598-6.5437-5.0795-8.2551-7.1711-2.0134-2.49-5.7383-8.0675-6.443-11.155-0.604-2.6892 0.9061-10.856 0.9061-10.856s-4.4296-4.4819-4.8324-6.4739c-0.6039-2.6892 3.4229-8.5655 2.0136-10.856-0.4027-0.59759-2.4162-0.19919-2.9195-0.79679-3.6243-4.6811 0-23.605 0-23.605s-8.1545-6.0755-8.5572-6.0755c-0.5034 0-3.5235-0.1992-4.3289-0.99599-0.8053-0.79679-0.302-3.486-0.8053-4.4819-1.7115-3.7847-10.571-13.047-10.571-13.047s0.9061-3.486 1.0067-4.6811c0.3021-1.8924-0.6039-5.9759 0.3021-7.6691 1.1074-1.8924 6.4431-3.0876 7.349-5.0795 0.9061-1.992 0.5034-7.0715-1.0067-8.6651-1.9128-1.7928-8.2551 0.39839-10.671-0.79679-2.8188-1.3944-8.3558-9.4619-8.3558-9.4619s-4.4296-1.2948-5.9396-1.5936c-0.9061-0.1992-3.2215 0.0996-3.8255-0.69719-0.5034-0.6972 1.0067-2.7888 0.5033-3.486-0.7047-0.99598-3.9262-1.494-4.8323-0.69719-0.4026 0.2988 0.4027 1.6932 0 1.992-2.5168 1.8924-9.6645-1.1952-12.181-2.988-1.8121-1.2948-4.8322-5.1791-4.933-7.4699 0-0.99598 2.0136-2.5896 2.0136-3.5856-0.2014-3.3864-6.4431-7.9679-7.7519-11.155-0.8053-1.8924 0.3021-6.7727-1.3087-8.1671-0.604-0.49799-2.6174-0.59759-3.1208 0-1.3088 1.494 0.302 6.0755 1.0067 7.9679 0.8054 2.2908 4.8323 5.7767 5.3356 8.1671 0.2014 0.79678 0.1007 2.7888-0.604 3.1872-0.9061 0.69719-3.6242-0.0996-4.5302-0.69719-2.3155-1.494-4.8323-6.7727-5.537-9.3623-0.7048-2.5896 1.51-8.6651 0-10.956-0.906-1.3944-5.839-2.7888-5.839-2.7888v-7.8683c-7.1477 16.633-11.175 34.86-11.175 54.082 0 76.193 62.618 138.14 139.63 138.14h0.302c43.49 0 82.45-20.019 108.02-51.094h-4.6309s0.7047-6.9719 0-9.1631c-0.7047-2.0916-5.3357-7.0715-5.3357-7.0715s1.1075-8.4659 0-11.055c-0.5033-1.2948-3.4228-2.6892-4.0269-3.984-0.5033-1.0956-0.6039-3.486-0.3019-4.5815 0.6039-2.6892 5.1342-9.7607 5.1342-9.7607l-9.7652-17.131s3.0201-9.3623 1.2081-11.653c-1.4095-1.6932-6.8457 0-8.8591-0.89638-1.0067-0.498-2.2148-2.7888-3.2215-3.1872-1.4095-0.59759-4.5304-0.49799-5.9397 0-0.9061 0.39839-2.0134 2.3904-3.0202 2.7888-2.4161 0.89639-8.255-1.494-10.47 0-0.2014 0.0996-0.1008 0.79679-0.3021 0.89639-1.208 0.79679-5.839 0-5.839 0l-13.389-15.039s-1.6107-9.3623 0.1007-11.753c0.302-0.49799 1.8121-0.39839 2.2148-0.79679 0.7047-0.89638 1.5101-3.5856 0.8054-4.4819-0.5034-0.5976-2.5168 0.49799-3.1209 0-1.0067-0.69719-1.7114-3.5856-1.3087-4.6811 1.6107-4.4819 13.289-6.8723 15.403-11.055 0.906-1.6932-1.0067-6.1751 0-7.7687 1.1074-1.7928 5.4364-3.6852 7.5504-4.1831 0.7047-0.1992 2.3154 0.2988 3.0202 0.2988 1.51 0.0996 4.7316 0.39839 6.2416 0 1.3088-0.2988 3.5235-2.1912 4.8324-2.5896 3.7248-1.0956 12.785-3.8843 15.705-1.1952 1.5101 1.3944-1.2081 6.3743 0 7.9679 1.9127 2.49 9.4632 1.7928 12.383 3.0876 0.7047 0.29879 1.7114 1.494 2.4162 1.6932 0.5033 0.1992 1.9128 0.3984 2.2148 0 0.8053-0.79679-0.7048-3.486 0-4.2827 1.208-1.2948 5.4363-1.1952 7.1477-0.69719 2.0134 0.59759 4.8322 4.3823 6.8457 4.9799 2.6175 0.89639 8.5572 0.99599 11.175 0 0.2013-0.0996 0.8053-0.69719 0.8053-0.69719-1.9127-3.8843-3.1208-7.5695-4.5302-11.155zm-65.94-39.341c0.2014-0.5976 0.8055-1.5936 1.3089-1.992 1.0067-0.69719 3.6241-1.5936 4.6308-0.89638 1.2081 0.79679 0.6041 4.1831 1.1075 5.4779 0.4026 1.0956 1.7114 2.988 2.416 3.8844 0.4028 0.49799 1.1075 1.494 1.6108 1.7928 0.604 0.49799 2.7182 0.3984 2.9196 1.0956 0.3019 0.99598-1.8122 2.7888-2.8189 3.2868-1.2081 0.59759-4.0269 0.49799-5.4363 0.49799-1.0068 0-3.4228 0.69719-4.0269 0-0.8054-0.89638-0.302-3.8843 0.5033-4.7807 0.6041-0.59759 2.9196 0 3.4229-0.69719 0.302-0.49799 0-1.7928-0.302-2.1912-0.5033-0.79679-2.4161-1.494-3.1209-1.992-0.6039-0.3984-1.9127-0.89639-2.2148-1.494-0.3019-0.2988-0.2012-1.3944 0-1.992zm-7.5503 8.6651c0.4027-1.2948 1.7114-3.6852 2.8188-4.3823 0.8054-0.59759 2.8188-0.99599 3.7248-0.89639 0.7048 0.0996 2.3156 0.49799 2.7182 1.1952 0.4027 0.59759 0.1007 2.2908-0.2013 2.988-0.9061 1.494-4.0269 3.486-5.7384 3.984-0.8053 0.19919-2.718 0.59759-3.2214 0-0.6041-0.5976-0.3021-2.1912-0.1007-2.8884zm-75.907 16.932c-0.5034 0.49799-2.4161 0.79679-2.9194 0.1992-0.4028-0.3984 0-1.494 0.2013-1.992 0.2013-0.49799 0.8054-1.5936 1.3087-1.5936 0.5034-0.0996 1.5101 0.79679 1.7115 1.3944 0.2012 0.49799 0.1006 1.6932-0.3021 1.992zm10.168-3.486c-0.4026 0.29879-1.6107-0.1992-2.0135 0.1992-0.4026 0.29879-0.1006 1.494-0.4026 1.8924-0.3021 0.39839-1.1074 0.79679-1.5101 0.89639-0.604 0.19919-2.0135 0.59759-2.4161 0.19919-0.5034-0.39839 0-0.79679-0.1007-0.99598-0.2013-0.1992-0.8054 0.19919-0.906 0-0.4028-0.3984-0.4028-1.6932 0-2.0916 0.7047-0.69719 3.2215 0.59759 4.0268 0 0.5034-0.2988 0.4028-1.7928 0.8054-2.0916 0.302-0.1992 1.2081-0.0996 1.6108 0 0.5034 0 1.6107 0 1.8121 0.39839 0.1006 0.39839-0.5034 1.2948-0.9061 1.5936z" fill="#e3dbdb" stroke-width="1.0013"/>
  </g>
 </g>
</svg>
