<?xml version="1.0" encoding="UTF-8"?>
<svg enable-background="new 0 0 1240 709" version="1.1" viewBox="0 0 746.74 631.6" xml:space="preserve" xmlns="http://www.w3.org/2000/svg" xmlns:xlink="http://www.w3.org/1999/xlink">
<g transform="translate(-478.25 -77.395)">
	<defs>
		<rect id="SVGID_1_" x="8.446" width="1240" height="709"/>
	</defs>
	<clipPath id="SVGID_2_">
		<use width="100%" height="100%" overflow="visible" xlink:href="#SVGID_1_"/>
	</clipPath>
	<path d="m719.1 554.09c-0.46-0.035-0.587-1.688-0.28-3.673 0.306-1.985 2.303-6.849 2.764-6.813s1.309 5.533 1.883 12.218c0.573 6.685 1.406 24.547 0.945 24.513-0.461-0.035-0.847 0.061-0.858 0.215-0.013 0.152-4.265-0.694-4.562-2.879-0.297-2.186 0.348-10.648 0.808-10.613 0.461 0.035 0.896-0.69 0.966-1.612 0.069-0.922-0.25-1.705-0.711-1.739-0.46-0.035-0.676-2.199-0.477-4.809 0.197-2.611-0.017-4.773-0.478-4.808m10.994-476.69c1.381 0.105 2.482 0.567 2.446 1.026-0.033 0.459 1.194 0.931 2.73 1.048 1.535 0.117 2.725 1.092 2.643 2.167-0.081 1.075 0.606 2.011 1.527 2.082 0.923 0.07 3.159 3.907 4.972 8.526 1.813 4.62 18.902 9.966 18.867 10.425s0.44 0.874 1.056 0.92c0.615 0.047 1.147-0.29 1.183-0.75 0.035-0.459 1.698-0.711 3.693-0.559 1.997 0.152 3.659-0.102 3.695-0.565 0.035-0.462 2.074-0.687 4.532-0.5s4.507-0.162 4.553-0.774c0.047-0.612 2.192-0.575 4.769 0.083 2.575 0.658 9.708 1.634 9.754 1.022 0.047-0.612 2.491-1.185 5.434-1.272 2.942-0.088 10.948 0.088 10.912 0.55-0.035 0.463 0.662 1.274 1.549 1.804 0.888 0.529 3.217 2.025 3.183 2.488-0.035 0.462 0.815 0.907 1.891 0.989 1.074 0.082 2.361 1.443 2.857 3.023 0.497 1.581 2.271 6.35 2.886 6.397 0.614 0.047 0.992 1.719 0.84 3.716-0.152 1.996 0.634 4.964 1.747 6.595 1.112 1.631 2.827 6.398 3.44 6.445 0.614 0.047 1.621 1.766 2.238 3.822 0.616 2.055 10.449 6.633 10.403 7.248-0.047 0.616 3.21 0.993 7.239 0.837 4.028-0.155 18.534 1.516 23.31 3.734l-0.893 11.738c-0.256 3.351-1.067 6.662-1.364 10.57l-0.765 10.045c15.104 4.55 27.434 8.651 27.398 9.113-0.035 0.463 0.689 0.898 1.609 0.969 0.92 0.07 1.644 0.503 1.608 0.962-0.034 0.459 0.837 0.652 1.937 0.427 1.1-0.224 3.684-0.461 3.648-2e-3s0.644 1.522 1.508 2.36c0.862 0.839 0.724 7.644 0.263 7.609s-0.962 1.57-1.114 3.567-0.653 3.602-1.114 3.566c-0.461-0.035-0.904 0.816-0.986 1.891s-1.546 5.387-3.254 9.581c-1.71 4.195-2.541 17.682-0.436 20.47 2.106 2.788 8.642 10.867 9.527 11.399 0.885 0.533 1.552 1.722 1.481 2.646-0.07 0.921 0.753 1.743 1.829 1.824 1.077 0.082 2.104 1.549 2.281 3.26 0.178 1.71 1.354 6.94 2.24 7.473 0.885 0.532 1.522 2.098 1.418 3.479-0.105 1.381 0.313 2.55 0.928 2.597 0.616 0.046 1.358-3.057 1.651-6.898 0.292-3.84 0.026-7.02-0.59-7.067-0.614-0.047-1.264-1.485-1.441-3.196s-0.253-6.476 0.207-6.441c0.461 0.035 0.925-1.069 1.03-2.453 0.104-1.384 1.12-3.077 2.254-3.76 1.135-0.684 3.883-2.995 3.953-3.917 0.069-0.921 0.648-1.888 1.285-2.147 0.638-0.26 3.003-2.535 3.153-4.532 0.152-1.997 0.654-3.602 1.115-3.567 0.461 0.036 1.339-1.541 1.952-3.503 0.612-1.961 1.491-3.538 1.952-3.502 0.461 0.035 2.238-1.728 3.949-3.917s10.642-6.966 10.712-7.888 5.201-1.923 11.403-2.224 17.36-10.325 20.443-10.244c3.083 0.08 12.027 6.563 16.353 6.581 4.325 0.018 17.214 2.082 19.035 4.54s7.245 8.7 8.32 8.781c1.075 0.082 3.416 0.891 5.2 1.796 1.785 0.906 9.128 10.529 9.589 10.564s0.779 0.818 0.71 1.74c-0.07 0.922 0.356 1.965 0.949 2.318s2.053 2.541 1.936 4.079c-0.117 1.537 0.164 2.824 0.625 2.859s0.743 1.319 0.626 2.853 0.29 2.828 0.904 2.875c0.613 0.046 1.029 1.217 0.925 2.601-0.105 1.385 0.186 2.546 0.646 2.581 0.461 0.035 0.771 0.943 0.689 2.018s0.228 1.983 0.689 2.018c0.461 0.036 0.655 2.452 0.434 5.371-0.223 2.918-0.026 5.335 0.435 5.37s0.647 2.577 0.413 5.648c-0.233 3.072-0.802 5.557-1.263 5.522-0.461-0.036-0.991 1.945-1.178 4.402-0.188 2.456-0.718 4.436-1.179 4.401s-0.895 0.691-0.965 1.613c-0.07 0.921-0.505 1.647-0.966 1.612s-0.934 1.194-1.051 2.731c-0.117 1.538-0.714 2.757-1.329 2.711-0.614-0.047-1.454 1.026-1.867 2.383-0.412 1.358-1.854 4.636-2.314 4.601-0.461-0.035-0.896 0.691-0.967 1.613-0.069 0.921-0.92 2.119-1.888 2.661-0.969 0.543-1.819 1.741-1.889 2.663s-1.324 2.469-2.787 3.439-5.084 4.029-5.154 4.951c-0.069 0.921-1.045 2.112-2.167 2.647-1.122 0.533-2.068 1.346-2.103 1.805s-0.818 0.778-1.74 0.708-1.704 0.248-1.739 0.707c-0.035 0.46-0.943 0.769-2.018 0.687s-2.245 0.336-2.6 0.928c-0.354 0.592-2.587 2.62-4.123 2.503-1.534-0.117-2.819 0.164-2.855 0.623-0.035 0.459-0.817 0.778-1.739 0.707-0.922-0.069-1.705 0.249-1.74 0.708-0.034 0.46-1.319 0.74-2.855 0.623-1.535-0.117-2.821 0.166-2.856 0.628-0.035 0.463-4.983 0.719-10.998 0.569-6.013-0.149-21.56-0.898-21.524-1.358 0.035-0.459-0.816-0.902-1.892-0.983-1.074-0.082-2.894-1.105-4.041-2.274-1.147-1.168-6.43-4.081-6.383-4.697s-0.902-1.446-2.107-1.846c-1.207-0.4-4.911-1.883-4.876-2.342 0.034-0.46-1.456-2.468-3.313-4.464s-10.405-7.299-10.323-8.374-0.334-2.243-0.925-2.596-2.079-2.163-1.997-3.238-0.781-3.035-1.917-4.357-3.216-6.993-3.677-7.029c-0.461-0.035-1.208-1.861-1.659-4.057l0.084-1.114c0.085-1.114 0.686-1.639 0.728-2.196l0.128-1.67c-2.626-2.054-6.738 2.184-9.141 9.419l-0.425 5.579-0.255 3.352c0.662 3.451 1.58 6.303 2.041 6.338s0.668 3.97 0.46 8.744-6.231 11.793-6.302 12.715c-0.07 0.921-0.631 1.637-1.246 1.591-0.616-0.048-1.244 1.548-1.396 3.545-0.15 1.997-0.652 3.601-1.113 3.567-0.462-0.036-0.935 1.193-1.052 2.731-0.116 1.537-0.588 2.767-1.048 2.732-0.459-0.036-0.959 1.57-1.11 3.566-0.152 1.997-0.653 3.602-1.114 3.567s-0.963 1.57-1.114 3.567c-0.152 1.997-0.78 3.592-1.396 3.545-0.616-0.046-1.177 0.669-1.247 1.591s-0.506 1.646-0.965 1.612c-0.462-0.035-1.24 5.216-1.731 11.669-0.491 6.451 0.183 14.215 1.499 17.251 1.314 3.035-0.117 15.719-4.497 18.475s-20.543 6.943-21.474 9.035c-0.931 2.091-5.12 6.913-5.58 6.878-0.461-0.035-0.935 1.194-1.051 2.731-0.117 1.537-2.213 4.16-4.655 5.828-2.443 1.669-9.269 7.357-9.338 8.279-0.071 0.921-0.659 2.013-1.309 2.426-0.648 0.412-2.398 1.977-2.469 2.898s-1.468 4.355-3.106 7.632-4.344 11.464-4.805 11.429c-0.46-0.035-1 2.073-1.199 4.687-0.198 2.611-0.863 4.711-1.477 4.665-0.615-0.047-1.464 1.152-1.889 2.667-0.426 1.514-1.206 6.08-0.746 6.114 0.461 0.035 2.377 3.09 4.258 6.787 1.881 3.698 6.558 9.79 6.453 11.171-0.105 1.382 2.267 5.101 5.271 8.265s6.272 15.369 4.736 15.252-2.977-1.113-3.2-2.215-1.22-3.744-1.681-3.78c-0.461-0.035-0.781-0.817-0.71-1.739 0.069-0.922-0.481-1.974-1.226-2.339s-2.329-2.627-2.259-3.549-0.354-1.965-0.946-2.318c-0.591-0.353-2.084-2.163-2.002-3.237 0.081-1.075-0.692-2.525-1.721-3.223s-3.394-3.389-3.312-4.464-0.335-2.243-0.926-2.596c-0.591-0.354-2.649-2.089-2.58-3.008 0.07-0.918-0.25-1.699-0.711-1.734s-1.282-0.856-1.826-1.824c-0.544-0.969-4.15-6.575-7.011-7.562-2.86-0.988-9.857-6.653-13.236-6.911-3.381-0.257-9.75 0.397-14.157 1.455-4.407 1.056-11.293 8.17-11.375 9.249-0.082 1.078-0.903 1.901-1.825 1.832-0.922-0.07-4.409 2.569-7.75 5.868-3.34 3.297-13.893 12.394-16.682 12.49-2.788 0.096-9.551 0.016-9.516-0.443 0.035-0.46-1.192-0.932-2.728-1.048-1.536-0.117-2.765-0.592-2.729-1.055 0.035-0.462-0.671-1.147-1.568-1.524-0.899-0.376-7.357-0.414-9.625 0.959-2.27 1.374-9.912 7.108-10.373 7.073-0.461-0.034-1.423 4.315-2.139 9.666-0.715 5.353-4.336 15.122-4.797 15.088-0.461-0.036-1.147-0.973-1.526-2.082-0.379-1.11-0.366-7.046 0.25-6.999 0.614 0.047 1.243-1.549 1.395-3.546 0.152-1.996-6.299-5.27-14.335-7.272-8.036-2.004-32.374-9.053-39.428-9.743-7.053-0.691-18.055-8.396-20.973-8.619-2.919-0.222-5.277-0.782-5.242-1.245 0.035-0.462-1.193-0.936-2.729-1.053-1.535-0.117-2.763-0.588-2.728-1.048 0.033-0.459-2.615-0.532-5.888-0.162s-14.508 0.383-17.357-0.761c-2.848-1.144-10.946-5.086-11.325-6.199s-1.424-2.331-2.323-2.708l-1.676-0.127-3.909-0.298c-4.087 0.928-7.469 2.189-7.516 2.805s-2.976 0.9-6.508 0.631-7.236-1.438-8.231-2.598c-0.995-1.159-4.632-9.313-4.14-15.767 0.49-6.452 0.409-12.021-0.182-12.373-0.591-0.354-2.078-2.163-1.996-3.238s-0.229-1.983-0.689-2.019c-0.462-0.034-1.159-0.847-1.549-1.804-0.391-0.957-1.856-4.078-2.776-4.147-0.92-0.07-2.081-1.422-2.58-3.002-0.499-1.581-3.458-6.44-4.839-6.546s-2.483-0.569-2.447-1.031c0.035-0.463-0.719-0.521-1.677-0.128-0.956 0.392-7.618 0.77-14.116 0.892-6.498 0.121-10.034-18.181-9.574-18.146 0.461 0.035 1.32-1.287 1.91-2.94 0.589-1.652 2.595-5.699 3.517-5.629 0.922 0.069 1.829-1.885 2.016-4.344s-0.395-4.779-1.294-5.156c-0.898-0.376-3.785-1.914-3.739-2.53 0.047-0.615-0.668-1.177-1.59-1.246-0.922-0.07-1.648-0.504-1.613-0.963s-2.324-1.017-5.243-1.239c-2.918-0.222-5.277-0.781-5.242-1.245 0.035-0.462-2.258-3.542-5.097-6.845l0.426-5.59c0.424-5.58 5.151-8.591 5.576-14.182l0.765-10.056c-3.217-2.407-7.106-4.472-8.642-4.589s-2.726-1.092-2.644-2.167-0.731-2.021-1.805-2.103c-1.075-0.082-2.168-0.671-2.429-1.311-0.261-0.639-2.581-2.442-4.577-2.594-1.997-0.151-4.974 0.761-6.615 2.029-1.641 1.267-8.02 1.468-5.929 0.388 2.09-1.079 12.653-9.752 14.812-13.758 2.16-4.007 10.338-10.367 10.408-11.289 0.07-0.921 1.055-2.237 2.188-2.924s4.003-4.623 4.226-7.542c0.222-2.918-0.429-6.002-1.445-6.852-1.016-0.851-3.382-3.542-3.312-4.464 0.071-0.922-2.107-3.867-4.839-6.546-2.731-2.678-2.608-17.579-0.766-19.447 1.843-1.868 9.676-5.354 9.746-6.275 0.071-0.922 1.007-1.609 2.082-1.528 1.075 0.082 2.274-0.711 2.663-1.763 0.389-1.051 1.77-3.522 2.231-3.487s0.905-0.816 0.987-1.891 0.651-1.916 1.265-1.869c0.614 0.046 1.465-1.149 1.891-2.656l0.085-1.125 0.553-7.261c-5.181-5.027-9.796-9.168-10.257-9.204-0.461-0.035-0.5-1.177-0.087-2.538 0.413-1.36 1.1-4.687 0.639-4.723-0.461-0.035-0.714-1.697-0.561-3.694 0.151-1.996 1.222-4.443 2.379-5.436s5.739-5.281 5.774-5.743c0.035-0.463 0.943-0.774 2.018-0.692 1.075 0.081 1.984-0.228 2.018-0.687 0.036-0.459 0.818-0.777 1.74-0.708 0.922 0.07 1.714-0.376 1.761-0.991 0.047-0.616 1.593-2.648 3.435-4.516 1.843-1.868 5.223-8.306 5.684-8.27 0.461 0.035 1.176-1.05 1.589-2.411s1.98-4.621 2.594-4.574 1.269-1.928 1.456-4.387c0.188-2.459 0.718-4.442 1.179-4.407s0.654-0.835 0.43-1.933c-0.225-1.099-1.346-3.748-1.96-3.795-0.614-0.046-1.021-1.343-0.904-2.88 0.117-1.538-0.165-2.824-0.625-2.859-0.461-0.035-0.465-4.965-0.01-10.955 0.456-5.991 1.333-10.853 1.949-10.807 0.615 0.047 3.925-4.752 4.847-4.682s6.836-2.895 13.142-6.589 24.439-7.355 24.487-7.971c0.046-0.615 1.214-1.033 2.596-0.928 1.381 0.105 2.539-0.185 2.574-0.644 0.036-0.46 0.945-0.768 2.021-0.687 1.077 0.083 1.986-0.229 2.022-0.691 0.035-0.463 5.13 2.326 11.322 6.198l6.704 0.51c18.431 1.403 7.922-30.288 30.268-28.588 1.676 0.127 3.866 0.854 5.543 0.981l1.676 0.128c2.197-0.455 4.032-1.329 4.079-1.941s0.964-1.047 2.039-0.965c1.074 0.082 1.982-0.23 2.019-0.692 0.035-0.463 0.818-0.784 1.74-0.714 0.921 0.071 1.965-0.354 2.32-0.943 0.354-0.589 2.543-2.058 4.078-1.941 1.536 0.117 2.831-0.288 2.877-0.901 0.048-0.612 0.567-2.468 1.157-4.123 0.589-1.656 14.312-1.102 16.736 1.553 2.426 2.655 9.105 9.496 9.071 9.959-0.035 0.462 2.7 1.051 6.08 1.308 3.38 0.258 7.459-0.191 9.064-0.996 1.606-0.805 7.2-6.761 7.814-6.714 0.613 0.047 1.298-2.303 1.52-5.221 0.222-2.919 0.926-5.519 1.565-5.779 0.646-0.26 7.667-4.469 9.049-4.365" clip-path="url(#SVGID_2_)" fill="#C7C7C6"/>
	<path d="m1171.4 672.92c-0.31 0.274-1.042 0.472-1.628 0.437s-1.291-0.316-1.566-0.627-0.839-0.536-1.251-0.501c-0.413 0.034-1.852 0.186-2.128-0.125-0.275-0.311-0.704-0.384-0.951-0.164-0.248 0.22-0.822 0.187-1.277-0.076-0.454-0.262-2.203-0.459-2.328-0.349-0.124 0.111-1.757-0.707-3.63-1.817-1.873-1.109-6.412-3.384-6.536-3.273-0.124 0.109-0.732-0.165-1.353-0.613-0.618-0.447-1.277-0.677-1.464-0.512-0.186 0.165 0.951 2.058 2.528 4.207 1.577 2.148 4.214 8.354 4.09 8.465s-1.352-1.068-2.729-2.618c-1.375-1.55-2.4-2.909-2.276-3.019s-0.63-1.165-1.676-2.344c-1.048-1.178-1.75-2.276-1.564-2.441 0.187-0.165-0.371-1.303-1.237-2.528l-1.003-1.128-1.202-1.353c-0.894-0.759-1.777-1.243-1.964-1.078-0.186 0.165-0.563 0.047-0.839-0.264s-3.39-2.897-6.922-5.75c-3.531-2.852-10.643-4.489-11.027-4.924-0.387-0.434-0.899-0.706-1.142-0.603-0.242 0.102-1.788-0.472-2.916-1.242-1.128-0.772-3.495-0.755-3.881-1.19-0.385-0.433-1.281-0.727-1.99-0.651-0.71 0.075-2.682-0.068-3.069-0.503-0.386-0.436-0.804-0.701-0.928-0.591-0.124 0.109-0.546-0.059-0.937-0.374-0.392-0.316-2.148-0.514-2.893 0.147-0.743 0.661-0.649 3.117 0.21 5.458s1.086 5.493 0.838 5.713c-0.248 0.221-0.841-1.161-1.314-3.069-0.475-1.909-2.485-6.863-2.361-6.973 0.123-0.109 0.044-0.402-0.177-0.651-0.221-0.248-0.3-0.542-0.175-0.652 0.124-0.111 0.181-0.251 0.126-0.313-0.056-0.062-0.056-0.062 0 0 0.055 0.063-0.407-0.254-1.027-0.7-0.619-0.447-3.846 0.207-3.956 0.084-0.108-0.124-0.307-0.039-0.438 0.188-0.131 0.228-0.58 0.938-0.69 0.814-0.109-0.124-0.301-0.136-0.426-0.024-0.124 0.11-3.167 1.179-6.763 2.375-3.596 1.197-15.7 1.392-15.976 1.082s-1.312-0.66-2.304-0.777c-0.991-0.115-5.202-0.749-6.263-0.692-1.061 0.055-3.81-0.201-4.029-0.45-0.221-0.249-0.554-0.317-0.74-0.151-0.186 0.165-0.563 0.046-0.839-0.264-0.275-0.312-0.602-0.474-0.726-0.365-0.123 0.11-0.45-0.054-0.727-0.364-0.274-0.311-0.884-0.586-1.352-0.612s-1.076-0.302-1.353-0.612c-0.274-0.311-0.652-0.429-0.839-0.264-0.186 0.165-0.575 0.236-0.864 0.161l-0.289-0.077c-0.256 0.076-0.487 0.159-0.516 0.183l-0.061 0.055c-0.063 0.056-0.163 0.146-0.226 0.2-0.062 0.056-0.897 0.124-1.063-0.061-0.165-0.186-0.502-0.157-0.75 0.063-0.248 0.221-0.688 0.338-0.979 0.262s-1.154 0.017-1.402 0.236c-0.247 0.221-0.688 0.339-0.976 0.264-0.289-0.074-1.356-0.21-1.604 0.01s-1.623 0.715-3.056 1.101c-1.433 0.385-7.062 0.631-7.311 0.852-0.248 0.221-0.733 0.288-1.078 0.148-0.344-0.138-1.079-0.251-1.389 0.025-0.312 0.274-0.654 0.398-0.765 0.275-0.109-0.124-2.352-0.4-4.982-0.615-2.632-0.215-5.234-0.445-5.51-0.756s-0.98-0.593-1.565-0.626c-0.586-0.034-1.245-0.266-1.465-0.514s-3.477-0.44-7.236-0.43c-3.76 0.012-7.691-0.43-8.002-0.154-0.31 0.275-0.896 0.434-1.302 0.351-0.407-0.082-2.146-0.111-2.579 0.274-0.435 0.385-0.881 0.6-0.991 0.476s-0.402-0.047-0.65 0.175c-0.248 0.22-0.541 0.299-0.651 0.175-0.109-0.124-1.152 0.439-2.316 1.251s-4.208 3.515-4.283 3.804c-0.076 0.29-0.904 1.026-1.016 0.902-0.109-0.124-0.454-1e-3 -0.763 0.274-0.311 0.274-0.699 0.348-0.864 0.161-0.165-0.186-1.467 0.698-2.894 1.966-1.428 1.267-2.685 2.201-2.793 2.078-0.11-0.124-0.939 0.067-1.842 0.425-0.901 0.356-3.595 0.721-3.869 0.412-0.275-0.311-0.657-1.15-0.851-1.867-0.191-0.717-1.124-4.649-0.999-4.759 0.124-0.11 1e-3 -0.454-0.274-0.765-0.275-0.309-0.394-0.749-0.263-0.976 0.13-0.229 0.263-1.292-0.014-1.604-0.275-0.31-0.479-0.946-0.449-1.416 0.028-0.468-0.174-1.104-0.449-1.414-0.274-0.31-0.455-1.33-0.399-2.266 0.055-0.938 0.154-2.961 0.401-3.181 0.247-0.221-0.254-1.5-1.113-2.844-0.86-1.343-3.549-5.588-4.816-7.014-1.266-1.426-2.201-2.683-2.077-2.792 0.123-0.11 0.044-0.403-0.176-0.651s-0.248-0.586-0.062-0.751-0.332-1.156-1.151-2.203c-0.819-1.048-2.765-4-2.641-4.11 0.124-0.109 0.045-0.402-0.176-0.65-0.22-0.247-0.265-1.114-0.099-1.928s0.287-3.31-0.098-3.744c-0.387-0.434-0.6-0.879-0.476-0.99 0.124-0.109-0.09-0.555-0.475-0.988-0.385-0.435-0.599-0.879-0.477-0.989 0.124-0.11 0-0.453-0.275-0.764-0.276-0.311-0.35-0.699-0.163-0.864 0.186-0.165 0.158-0.503-0.063-0.751-0.22-0.248-0.298-0.541-0.174-0.652 0.124-0.109 0.131-1.84 0.016-3.844-0.116-2.005-2.521-6.391-2.929-6.474-0.405-0.084-1.593 0.204-1.841 0.425-0.248 0.22-0.541 0.298-0.65 0.174-0.111-0.124-0.557 0.09-0.99 0.475-0.435 0.386-0.924 0.548-1.089 0.362s-0.556-0.112-0.865 0.163c-0.311 0.276-0.654 0.4-0.764 0.276-0.109-0.123-0.402-0.045-0.65 0.176-0.248 0.22-1.623 0.715-3.056 1.099-1.433 0.385-5.194 2.325-5.359 2.139-0.166-0.186-0.504-0.157-0.751 0.063-0.248 0.22-1.076 0.411-1.841 0.424s-2.946 0.953-3.468 0.864c-0.523-0.09-1.205 0.062-1.516 0.338-0.311 0.275-1.05 0.568-1.642 0.65-0.593 0.082-3.122 0.572-3.232 0.448-0.109-0.123 0.309-0.675 0.93-1.227 0.62-0.551 1.218-0.901 1.327-0.777 0.11 0.124 0.556-0.09 0.988-0.476 0.435-0.385 0.88-0.6 0.99-0.475 0.11 0.124 0.595 0.058 1.078-0.149 0.481-0.206 1.844-0.649 1.954-0.525 0.109 0.125 0.555-0.089 0.988-0.474 0.435-0.386 0.879-0.601 0.989-0.477 0.11 0.123 0.554-0.091 0.988-0.476 0.434-0.386 3.291-0.745 6.35-0.798 3.059-0.054 11.465-5.717 11.308-7.02-0.158-1.302-0.985-4.71-1.749-4.696s-1.905-0.558-2.291-0.99c-0.386-0.434-1.444-1.218-2.354-1.741l-0.601-0.677-3.805-4.284c2.206-5.508 3.831-10.218 3.611-10.466-0.22-0.247-0.783-0.473-1.251-0.5-0.468-0.028-1.533 0.148-1.843 0.424-0.311 0.275-0.653 0.399-0.763 0.275s-0.656 0.181-1.215 0.676c-0.558 0.496-1.104 0.8-1.215 0.676s-0.584-0.249-1.052-0.277c-0.468-0.026-2.39-2.09-2.314-2.379s2.968-1.496 4.771-1.213c1.804 0.283 4.794-1.97 3.92-3.079-0.874-1.108-2.862-4.109-2.738-4.22 0.123-0.109 0.038-0.307-0.188-0.438-0.228-0.132-0.938-0.58-0.814-0.69s-0.405-0.91-1.176-1.777-1.249-1.713-1.063-1.879c0.187-0.165-0.939-1.433-2.503-2.817-1.563-1.386-1.002-5.898-0.837-5.712s0.401 0.249 0.525 0.139 0.354 0.048 0.514 0.352 0.562 1.517 0.438 1.626c-0.125 0.11-0.046 0.404 0.175 0.652 0.221 0.249 0.249 0.587 0.063 0.753-0.186 0.165-0.012 0.463 0.389 0.662 0.398 0.2 1.198 0.75 1.013 0.916-0.186 0.165 0.203 0.909 0.864 1.653 0.66 0.744 1.1 1.442 0.977 1.553-0.124 0.109 0.265 0.853 0.862 1.652 0.598 0.799 1.912 3.141 1.726 3.306s-0.102 0.362 0.188 0.438c0.289 0.076 1 0.525 0.813 0.69-0.186 0.165 0.473 1.213 1.464 2.329 0.99 1.116 2.404 4.319 2.528 4.209 0.125-0.111 0.857-0.308 1.628-0.438s7.353-1.085 8.902-2.461c1.551-1.377 2.729-2.604 2.618-2.729-0.11-0.125 0.193-0.396 0.677-0.602 0.482-0.206 1.463-1.078 1.354-1.201-0.11-0.124 0.407-0.767 1.152-1.428 0.744-0.661 1.443-1.1 1.553-0.976s0.303 0.136 0.426 0.026c0.124-0.11 0.135-0.302 0.024-0.426-0.11-0.125 0.865-1.172 2.167-2.329 1.303-1.156 2.661-2.181 3.02-2.276 0.357-0.097 1.237-0.877 1.127-1.001-0.11-0.125 0.51-0.857 1.379-1.629 0.868-0.771 1.494-1.6 1.391-1.841-0.104-0.24 0.449-1.808 1.441-2.688s1.725-1.896 1.628-2.254c-0.096-0.359-0.624-1.465-0.438-1.63 0.187-0.165 0.159-0.503-0.062-0.751-0.22-0.248-0.299-0.54-0.175-0.65s0.057-0.595-0.149-1.078l-0.401-0.452-2.201-2.479c-4.422-0.731-8.266-1.584-8.54-1.894-0.275-0.31-0.602-0.474-0.726-0.363-0.124 0.109-0.404-3e-3 -0.625-0.251-0.22-0.248-1.318-0.361-2.441-0.251-1.124 0.109-4.422 0.246-4.697-0.064-0.276-0.311-0.704-0.384-0.952-0.164s-0.141 0.852 0.239 1.402c0.379 0.551 0.936 2.395 0.813 2.505-0.124 0.109-0.394-0.195-0.601-0.677s-1.123-1.514-1.302-1.465c-0.179 0.047-1.114-1.007-1.102-1.24 0.015-0.234-0.478-0.787-0.601-0.679-0.124 0.11-0.941 0.11-1.816 0-0.875-0.109-3.493-2.049-3.064-2.316 0.428-0.269 1.718-0.791 1.553-0.978-0.165-0.186-0.092-0.613 0.163-0.95 0.254-0.337 0.309-1.695-0.187-2.253-0.495-0.559-0.8-1.105-0.677-1.215 0.124-0.109-0.496-1.012-1.377-2.004-0.881-0.991-1.703-1.714-1.827-1.604-0.123 0.109-0.438-0.245-0.7-0.789s-0.119-1.304 0.314-1.69c0.435-0.386 1.279-0.048 1.877 0.751 0.598 0.8 1.963 3.097 1.838 3.206-0.124 0.111 0.495 1.013 1.376 2.005s1.45 1.938 1.265 2.104c-0.187 0.165 0.395 0.92 1.289 1.679 0.896 0.758 4.945 2.615 7.012 2.443 2.065-0.172 5.211 0.815 5.521 0.541 0.311-0.276 0.8-0.439 1.09-0.363 0.289 0.076 1.079 0.454 1.266 0.289 0.186-0.165 1.605-0.609 3.155-0.987s6.177-3.318 6.212-3.904c0.035-0.585 0.265-2.858 0.389-2.969 0.125-0.11-0.286-1.287-0.912-2.616-0.627-1.329-2.591-4.758-2.715-4.646-0.125 0.11-0.508 0.088-0.854-0.05-0.344-0.137-1.179-0.567-1.363-0.402-0.186 0.164-0.563 0.046-0.837-0.264-0.275-0.311-1.104-0.936-1.841-1.39-0.735-0.454-6.252-0.456-6.473-0.704-0.22-0.248-0.501-0.36-0.626-0.25-0.124 0.109-0.958-0.419-1.854-1.179-0.896-0.758-3.356-2.666-3.48-2.556-0.124 0.111-0.541-0.154-0.926-0.588-0.387-0.434-0.898-0.704-1.14-0.602-0.24 0.104-1.09-0.093-1.364-0.401-0.275-0.311-0.934-0.541-1.463-0.514-0.53 0.026-1.189-0.204-1.465-0.516-0.275-0.31-0.603-0.474-0.727-0.363s-0.451-0.053-0.727-0.363-0.653-0.43-0.84-0.265c-0.186 0.166-0.519 0.099-0.738-0.149-0.221-0.248-0.502-0.36-0.626-0.25s-0.451-0.053-0.727-0.362c-0.274-0.31-0.601-0.473-0.725-0.364-0.123 0.11-1.02-0.184-1.99-0.651-0.971-0.47-3.783-0.855-3.893-0.979-0.111-0.125-0.216-1.604-0.326-1.729-0.11-0.124 0.335-0.337 0.99-0.475 0.653-0.137 3.342 1.064 3.466 0.954 0.125-0.11 0.632 0.256 1.127 0.814 0.496 0.558 1.054 0.88 1.24 0.714 0.186-0.165 0.518-0.097 0.738 0.151 0.221 0.246 0.501 0.359 0.626 0.25 0.124-0.111 0.451 0.053 0.727 0.362 0.275 0.311 3.662 1.569 7.523 2.797 3.862 1.229 11.456 4.748 11.58 4.638s0.406 2e-3 0.626 0.25c0.221 0.248 0.553 0.315 0.737 0.15 0.186-0.164 0.563-0.045 0.839 0.266 0.275 0.311 2.124 0.757 4.108 0.99l2.029-1.802 1.354-1.202c0.993-2.878 2.008-5.414 2.256-5.634 0.247-0.22-0.112-2.259-0.8-4.532-0.688-2.272-3.853-8.274-3.666-8.439s0.067-0.605-0.262-0.978c-0.331-0.372-0.499-0.767-0.375-0.877 0.123-0.11 1e-3 -0.455-0.275-0.765-0.276-0.311-0.231-0.26 0.1 0.112l0.401 0.451c0.199 0.226-0.262-0.09-0.827-0.476-0.563-0.385-8.16-7.677-7.974-7.842s0.102-0.363-0.188-0.439c-0.288-0.076-0.799-0.297-0.612-0.462 0.186-0.166-0.078-0.565-0.588-0.89-0.509-0.324-1.23-0.681-1.326-1.039-0.097-0.358-0.647-1.636-1.252-2.318-0.605-0.681-1.078-1.622-1.051-2.09s3.654-1.917 6.374-1.227c2.721 0.689 7.232 1.108 7.397 1.295 0.166 0.186 0.701 0.073 1.19-0.251s1.857-0.862 1.968-0.738c0.109 0.123 0.91-0.406 1.777-1.177 0.868-0.771 1.488-1.502 1.378-1.626-0.109-0.124 1.255-0.428 3.032-0.674 1.777-0.247 7.778-3.502 7.888-3.377 0.11 0.123 0.454 0 0.766-0.275 0.31-0.276 0.653-0.4 0.763-0.277 0.11 0.124 0.11 0.124 0 0-0.109-0.123 1.113-1.39 2.168-2.326 1.054-0.937 1.827-1.805 1.716-1.929-0.109-0.124-0.099-0.315 0.024-0.425 0.124-0.11-2.703-4.315-6.281-9.344s-12.986-18.313-12.676-18.587c0.309-0.275 3.249 3.647 6.532 8.718 3.282 5.07 16.186 17.394 18.425 15.296 2.239-2.099-0.01-11.891 0.18-12.057 0.187-0.165-0.195-1.006-0.85-1.866-0.653-0.862-2.262-3.435-2.139-3.545 0.125-0.11-0.63-1.164-1.677-2.342-1.046-1.18-1.75-2.278-1.563-2.443 0.186-0.165 0.159-0.503-0.063-0.751-0.22-0.248-0.299-0.54-0.175-0.65 0.124-0.109-0.722-1.265-1.878-2.567-1.157-1.303-2.002-2.458-1.877-2.568 0.124-0.111-0.315-0.81-0.977-1.554-0.66-0.744-1.1-1.443-0.977-1.554 0.124-0.108-0.496-1.011-1.377-2.003-0.881-0.991-1.45-1.938-1.264-2.104 0.186-0.165 0.112-0.554-0.161-0.864-0.275-0.309-0.399-0.653-0.275-0.763 0.125-0.111-0.494-1.014-1.376-2.005-0.881-0.992-1.5-1.895-1.375-2.004 0.124-0.11-0.09-0.557-0.475-0.99-0.387-0.434-0.549-0.923-0.364-1.088 0.187-0.164-0.068-0.756-0.563-1.314-0.496-0.558-0.801-1.104-0.676-1.216 0.124-0.11 0.058-0.595-0.148-1.077-0.207-0.482-0.824-1.688-0.639-1.854 0.187-0.166 0.023-0.656-0.361-1.091-0.385-0.434-0.601-0.879-0.477-0.987 0.123-0.11-0.439-1.153-1.252-2.318-0.812-1.165-2.926-4.055-2.74-4.221 0.188-0.165 0.113-0.554-0.161-0.864-0.276-0.311-0.4-0.655-0.275-0.765 0.124-0.11-0.09-0.557-0.475-0.99-0.387-0.434-0.595-0.974-0.464-1.2s-0.052-1.646-0.713-2.391c-0.659-0.744-1.1-1.443-0.975-1.554 0.124-0.11-0.895-1.564-2.265-3.231s-5.325-7.39-5.884-8.892c-0.557-1.502-4.161-6.788-3.852-7.063 0.31-0.276-0.1-1.454-0.913-2.619-0.812-1.165-3.438-5.232-4.43-6.35-0.992-1.116-1.651-2.164-1.465-2.33 0.186-0.165-0.241-1.055-0.949-1.979-0.709-0.923-2.363-3.546-2.238-3.655 0.124-0.111-0.091-0.558-0.476-0.991-0.387-0.435-0.551-0.925-0.365-1.09 0.186-0.164-0.518-1.263-1.564-2.44s-1.8-2.231-1.675-2.341c0.124-0.111-0.411-0.816-1.188-1.568-0.779-0.752 0.929-3.267 1.04-3.143 0.109 0.124 0.302 0.136 0.425 0.026 0.124-0.109 0.721 0.359 1.327 1.041 0.605 0.683 1.586 1.991 2.178 2.906 0.593 0.916 1.673 3.553 1.487 3.718-0.187 0.165 0.066 0.757 0.563 1.315 0.495 0.558 0.8 1.105 0.676 1.214-0.124 0.11 0.182 0.657 0.678 1.215 0.494 0.559 0.799 1.105 0.675 1.215-0.124 0.111 0.089 0.557 0.475 0.99 0.385 0.435 0.6 0.879 0.476 0.99-0.125 0.11 0.313 0.809 0.975 1.553s1.05 1.488 0.865 1.653c-0.187 0.164 0.067 0.756 0.563 1.313 0.496 0.559 0.8 1.105 0.675 1.216-0.123 0.11 0.181 0.657 0.677 1.216 0.495 0.558 0.799 1.104 0.675 1.215s0.179 0.657 0.674 1.214c0.495 0.559 0.748 1.149 0.563 1.315-0.187 0.165 0.518 1.264 1.563 2.441 1.047 1.179 1.801 2.232 1.678 2.342-0.124 0.109 0.092 0.556 0.478 0.989 0.386 0.436 0.6 0.881 0.476 0.991-0.125 0.11 0.27 0.758 0.875 1.44s0.948 1.375 0.763 1.54c-0.187 0.165 0.201 0.909 0.862 1.653s1.101 1.443 0.977 1.553c-0.124 0.111 0.27 0.76 0.875 1.441s1 1.329 0.876 1.439c-0.123 0.109 0.603 1.643 1.615 3.406 1.011 1.765 3.488 6.177 3.364 6.286-0.124 0.11 0.181 0.657 0.677 1.215 0.494 0.559 0.748 1.15 0.562 1.315-0.187 0.166 0.113 0.808 0.663 1.428 0.551 0.62 0.9 1.217 0.777 1.327-0.124 0.11 5e-3 0.357 0.286 0.55 0.282 0.193 1.038 0.693 0.914 0.804-0.123 0.109 0.091 0.555 0.477 0.988 0.385 0.434 0.599 0.879 0.475 0.989s0.945 1.52 2.377 3.132c1.433 1.612 2.355 3.877 2.051 5.035-0.303 1.157 2.306 4.809 2.616 4.534 0.311-0.276 0.834-0.197 1.165 0.175 0.33 0.372 0.38 1.146 0.111 1.717-0.271 0.572-0.203 1.873 0.147 2.893 0.351 1.018 2.56 4.925 3.99 6.537 1.432 1.611 2.451 3.065 2.266 3.23-0.187 0.165-0.023 0.656 0.362 1.091s0.602 0.88 0.478 0.989c-0.123 0.11 0.586 1.113 1.576 2.228 0.991 1.116 1.7 2.119 1.576 2.23-0.125 0.11-1e-3 0.454 0.275 0.764 0.275 0.312 0.4 0.654 0.276 0.765-0.124 0.109 0.01 0.357 0.288 0.551 0.281 0.193 1.636 1.47 2 2.255s1.567 3.045 1.754 2.88c0.186-0.166 0.969 0.409 1.738 1.277 0.771 0.868 1.594 1.59 1.827 1.604 0.234 0.016 0.324 0.116 0.201 0.227-0.124 0.109-0.271 0.966-0.328 1.902l0.202 0.228 2.201 2.479c3.596-3.193 6.477-6.388 6.401-7.097-0.074-0.71-1.786-4.263-1.663-4.372 0.123-0.11-1.262-1.874-3.078-3.92-1.817-2.046-3.287-4.007-3.267-4.358 0.021-0.352-0.915-1.404-1.101-1.239-0.187 0.165-0.519 0.098-0.738-0.15s-0.502-0.361-0.625-0.251c-0.124 0.109-0.833-0.894-1.577-2.229-0.744-1.338-1.186-3.606-1.075-3.482s0.302 0.136 0.426 0.026 0.63 0.258 1.126 0.815c0.496 0.559 1.003 0.924 1.127 0.814s0.36-0.049 0.524 0.136c0.165 0.186 0.198 0.428 0.074 0.538s0.09 0.556 0.477 0.991c0.385 0.434 0.6 0.88 0.476 0.989-0.123 0.109 1.476 2.318 3.554 4.909 2.078 2.59 9.079 8.431 10.663 7.468l1.58-1.402 2.254-2.003c2.797-3.594 4.681-8.624 4.187-11.18-0.494-2.554 0.665-6.972 0.83-6.785 0.166 0.186 0.453 0.203 0.639 0.037 0.186-0.164 0.834 0.259 1.439 0.939 0.605 0.682 1.202 1.15 1.326 1.039 0.124-0.11 0.271-0.149 0.327-0.087s2.031 0.02 2.527 0.578 1.003 0.925 1.127 0.813c0.124-0.109 0.526 0.342 0.401 0.452-0.125 0.111 0.494 1.012 1.375 2.004 0.882 0.993 2.133 1.787 2.779 1.767 0.647-0.021 3.078-0.383 3.594-1.175 0.518-0.791 1.642-2.922 1.366-3.23-0.274-0.311-0.246-0.789 0.064-1.064s0.328-1.38 0.038-2.454c-0.289-1.073-0.949-3.996-0.825-4.107 0.124-0.11-0.089-0.555-0.476-0.989-0.385-0.434-0.599-0.879-0.474-0.99 0.124-0.109 0-0.454-0.276-0.764-0.274-0.311-0.612-1.917-0.75-3.569-0.138-1.651 0.411-4.396 1.155-5.057s2.773-0.829 4.509-0.373l1.401 1.577 1 1.126c0.715 1.807 1.199 3.374 1.076 3.484-0.124 0.109 0 0.452 0.274 0.763 0.275 0.309 0.394 0.749 0.263 0.977-0.13 0.228-0.265 1.293 0.012 1.604 0.275 0.31 0.394 0.75 0.262 0.977-0.131 0.228-0.038 1.091 0.238 1.401 0.275 0.31 0.343 0.795 0.15 1.077-0.193 0.281-0.063 1.294 0.322 1.729 0.387 0.435 0.584 1.167 0.439 1.628-0.144 0.461-0.289 1.718-0.014 2.027 0.274 0.31 0.397 0.653 0.274 0.763-0.124 0.11 0 0.453 0.276 0.765 0.275 0.31 0.349 0.698 0.163 0.863-0.187 0.166 0.156 0.859 0.762 1.54 0.605 0.683 1 1.33 0.875 1.44-0.124 0.11 0 0.455 0.276 0.765 0.274 0.312 0.398 0.655 0.274 0.766-0.125 0.109 0.349 1.052 1.051 2.092 0.703 1.04 2.905 3.669 3.216 3.394s1.348 0.074 2.305 0.777c0.957 0.704 5.436 3.42 7.873 5.914s12.043 2.662 12.319 2.972c0.274 0.312 1.127 0.554 1.891 0.54 0.764-0.013 2.743 1.194 2.93 1.029s1.814 0.748 3.617 2.03l1.602 1.802c2.805 3.158 5.531 7.591 8.734 11.199l1.803 2.029c2.147 1.418 4.056 2.444 4.242 2.279s0.896 0.021 1.577 0.414c0.682 0.393 2.57 1.551 2.694 1.441 0.123-0.109 0.54 0.155 0.925 0.59 0.386 0.434 1.646 1.036 2.805 1.341 1.157 0.303 4.884 0.956 5.159 1.266s1.356 0.71 2.402 0.89 4.953 1.036 5.559 1.719 2.1 1.443 3.317 1.691c1.219 0.248 5.05 1.564 5.483 1.18 0.435-0.387 1.121-0.634 1.527-0.552 0.407 0.083 2.465 1.847 2.34 1.956-0.124 0.111 0.09 0.557 0.475 0.99 0.387 0.435-0.968 4.631-3.009 9.326-2.04 4.695-0.509 15.376-0.818 15.651-0.31 0.274-0.485 2.427-0.391 4.782 0.096 2.355 1.067 9.829 2.224 11.133 1.156 1.302 2.627 2.446 3.266 2.543 0.64 0.097 2.301 2.172 1.977 2.681-0.323 0.509-1.271 3.55-1.953 4.156-0.683 0.605-0.859 2.758-0.393 4.781l1.002 1.13 0.803 0.902c0.854-0.537 1.777-0.724 2.052-0.415 0.274 0.31 0.104 0.731-0.377 0.938-0.482 0.207-1.617 0.903-1.453 1.089 0.165 0.186-0.056 0.653-0.489 1.038-0.434 0.386-0.761 1.04-0.726 1.453 0.034 0.414-1.318 3.373-3.192 5.259l3.002 3.38 1.801 2.028c2.508-0.671 4.521-1.368 4.473-1.547-0.051-0.181 0.677-0.826 0.789-0.701 0.109 0.125 0.556-0.088 0.989-0.474 0.435-0.386 0.879-0.6 0.989-0.476 0.109 0.123 0.594 0.055 1.075-0.152s2.071-0.851 2.181-0.727c0.111 0.125 3.07-1.958 6.575-4.629 3.506-2.671 13.262-3.311 13.448-3.476s0.75 0.062 1.253 0.503c0.503 0.442 1.842 1.188 1.965 1.077 0.124-0.109 0.45 0.055 0.726 0.365s0.653 0.429 0.84 0.264c0.186-0.166 0.659-0.042 1.053 0.275 0.393 0.316 1.64 0.96 1.764 0.85s0.862 0.414 1.639 1.165c0.778 0.751 4.826 1.119 5.048 1.368 0.221 0.248 0.976 0.485 1.679 0.527 0.702 0.042 2.631 1.294 2.816 1.129 0.187-0.166 1.06 0.51 1.939 1.502 0.881 0.991 2.553 1.956 3.717 2.143 1.163 0.188 4.015 2.683 3.891 2.792-0.123 0.11 0.091 0.556 0.476 0.989 0.386 0.435 0.549 0.924 0.363 1.089-0.187 0.165-0.12 0.65 0.148 1.078 0.269 0.427 0.765 1.745 0.641 1.855-0.123 0.109 0.496 1.011 1.376 2.002 0.881 0.992 1.449 1.938 1.263 2.103-0.186 0.166-0.022 0.657 0.364 1.092 0.387 0.436 0.601 0.882 0.477 0.992s0.478 1.298 1.336 2.642c0.859 1.342 2.889 4.896 2.578 5.172-0.31 0.275-0.39 1.617-0.178 2.979 0.213 1.364 0.133 2.704-0.177 2.98-0.31 0.273-0.382 0.703-0.161 0.951 0.221 0.249 0.146 0.678-0.163 0.952-0.311 0.276-0.751 1.212-0.979 2.079-0.228 0.868-0.093 6.535-0.402 6.811-0.311 0.275-0.537 0.839-0.503 1.251 0.033 0.413-0.272 2.26-1.141 3.031s-1.962 2.195-2.43 3.167c-0.468 0.97-1.852 3.819-1.633 4.066 0.22 0.247 0.23 0.872 0.024 1.39-0.204 0.516-3.177 3.144-4.334 2.84-1.155-0.305-4.898 1.75-5.009 1.626-0.109-0.124-0.836 0.795-1.614 2.041s-3.136 4.417-3.245 4.293c-0.109-0.123-0.402-0.044-0.65 0.176s-0.586 0.247-0.752 0.061-0.6-0.165-0.965 0.05c-0.365 0.213-1.539 0.309-1.814-1e-3 -0.275-0.312-0.8-0.391-1.165-0.177-0.366 0.214-1.405 0.464-1.515 0.342-0.11-0.124-0.453 0-0.764 0.274-0.309 0.275-0.698 0.347-0.863 0.16-0.166-0.187-0.557-0.114-0.866 0.162-0.31 0.275-0.654 0.399-0.764 0.275-0.11-0.122-0.516 0.237-0.901 0.802-0.386 0.563-3.783 0.135-3.969 0.3-0.187 0.165-0.834-0.258-1.44-0.94-0.605-0.683-1.203-1.15-1.327-1.041-0.123 0.109-0.799 0.165-1.502 0.123-0.701-0.041-2.113 0.447-2.065 0.626s-0.906 1.025-1.017 0.902c-0.109-0.124-0.492-0.146-0.85-0.05-0.358 0.097-1.468 0.311-1.393 0.021 0.077-0.289-0.142-0.637-0.485-0.773-0.344-0.138-2.129 0.146-2.955 1.213s-1.465 2.894-1.356 3.017c0.11 0.124 0.15 1.087 0.09 2.142-0.062 1.054-0.229 4.859 0.823 5.922 1.054 1.061 3.688 3.981 3.377 4.257-0.309 0.275-1.198-0.114-1.978-0.864-0.778-0.751-3.295-2.518-3.605-2.242-0.31 0.275-0.698 0.35-0.863 0.164-0.164-0.186-0.4-0.247-0.524-0.138-0.123 0.11-0.09 0.352 0.075 0.537s-0.057 0.652-0.49 1.038c-0.433 0.385-0.704 0.897-0.6 1.141 0.103 0.242-0.193 1.179-0.627 1.565-0.435 0.385-0.57 2.684-0.303 5.108 0.268 2.426 1.359 9.681 1.234 9.791-0.124 0.11 0 0.454 0.275 0.765s0.399 0.654 0.275 0.765 0.213 0.9 0.751 1.754l0.798 0.899 2.803 3.154c3.045 2.18 5.688 3.826 5.875 3.661 0.186-0.166 0.563-0.047 0.839 0.264s0.602 0.475 0.726 0.364c0.123-0.109 0.719 0.358 1.324 1.039 0.605 0.682 1.202 1.148 1.326 1.038s0.767 0.408 1.428 1.152 1.354 1.218 1.54 1.053c0.187-0.165 0.777 0.399 1.314 1.253 0.536 0.855-0.394 5.463-0.229 5.65 0.166 0.186-0.662 1.194-1.84 2.242-1.178 1.046-2.278 1.749-2.444 1.562-0.165-0.186-0.655-0.023-1.09 0.362-0.434 0.385-0.974 0.593-1.201 0.463-0.226-0.131-1.043-0.087-1.292 0.134-0.248 0.221-0.975 0.322-1.614 0.226-0.631-0.096-2.459-0.224-2.768 0.051m-222.28-322.04c0.187-0.165 0.52-0.097 0.739 0.151s0.146 0.675-0.163 0.95-0.653 0.399-0.764 0.274c-0.11-0.124-0.1-0.315 0.024-0.425 0.123-0.11 0.136-0.301 0.025-0.424-0.109-0.124-0.046-0.36 0.139-0.526m29.75 27.822c-0.138-0.655 0.621 1.119 1.688 3.943 1.065 2.824 3.611 10.504 3.426 10.669-0.187 0.165-0.564 0.047-0.838-0.263-0.276-0.309-0.349-0.698-0.162-0.863 0.186-0.165 0.073-0.7-0.25-1.188-0.324-0.489-1.063-2.084-0.939-2.194 0.123-0.11-0.495-1.011-1.377-2.003-0.881-0.992-1.483-2.182-1.339-2.643 0.147-0.463-0.07-4.805-0.209-5.458m-29.092 40.354c0.496 0.558 0.833 1.347 0.751 1.753-0.083 0.407-1.237 2.24-1.403 2.054-0.165-0.186-0.688-0.265-1.164-0.176-0.474 0.089-2.493-1.173-2.466-1.641l0.028-0.468c1.005-1.094 2.356-2.095 3.004-2.228l0.124-0.11c0.123-0.109 0.629 0.258 1.126 0.816m37.12-15.423-1.602-1.803c0.14-2.342 0.434-4.054 0.653-3.807 0.22 0.248 0.501 0.361 0.625 0.251 0.124-0.108 0.767 0.41 1.426 1.154 0.661 0.744 0.949 1.578 0.64 1.853-0.311 0.275 0.811 2.456 2.49 4.847 1.68 2.39 6.053 8.939 5.866 9.104-0.186 0.165 0.203 0.909 0.863 1.653 0.661 0.744 1.101 1.443 0.977 1.553-0.123 0.11-1.255-1.063-2.514-2.604-1.26-1.543-3.569-5.754-4.031-5.899-0.461-0.145-1.889-1.752-1.702-1.917s-0.202-0.909-0.862-1.653c-0.66-0.742-1.1-1.441-0.976-1.552 0.125-0.109 0.137-0.303 0.026-0.427s-0.303-0.135-0.427-0.025-0.598-0.014-1.051-0.275zm-67.141 116.49c0.124-0.11 0.559-0.133 0.966-0.05 0.406 0.083 2.036 1.014 1.852 1.179-0.185 0.164-1.058 0.305-1.94 0.312-0.882 6e-3 -3.306-0.542-3.58-0.853-0.276-0.311-0.698-0.479-0.939-0.376s-1.314 0.11-1.591-0.199c-0.275-0.312-0.839-0.537-1.252-0.503s-1.854 0.185-2.128-0.126c-0.276-0.311-0.98-0.592-1.565-0.627-0.584-0.034-2.418-0.476-2.541-0.366-0.124 0.11-2.112-0.392-4.419-1.115-2.306-0.724-5.696-1.645-5.972-1.956-0.275-0.31-0.891-0.489-1.365-0.4-0.476 0.09-1.739 0.083-2.015-0.228-0.276-0.31-0.698-0.479-0.939-0.376-0.241 0.104-1.18 0.264-1.29 0.139-0.109-0.124-0.442-0.192-0.74-0.151-0.296 0.041-1.143-0.153-1.362-0.401-0.221-0.248-0.693-0.372-1.053-0.275-0.357 0.095-1.482-0.307-1.979-0.864s0.53-0.834 2.28-0.614c1.749 0.222 7.263 1.617 7.387 1.507 0.123-0.108 0.405 3e-3 0.625 0.251s0.93 0.435 1.577 0.414c0.647-0.02 2.479 0.066 2.755 0.377 0.275 0.311 0.653 0.429 0.839 0.264 0.187-0.165 1.048-0.114 1.916 0.113 0.868 0.229 1.871 0.335 2.229 0.238 0.357-0.096 1.349 0.155 1.68 0.527 0.33 0.372 1.434 1.206 2.453 1.854 1.018 0.648 5.332 0.556 5.606 0.866 0.276 0.311 0.604 0.474 0.728 0.363s0.406 3e-3 0.626 0.25c0.22 0.248 0.643 0.417 0.938 0.376 0.297-0.04 1.214-0.22 1.489 0.09 0.274 0.306 0.599 0.47 0.724 0.36m84.084-92.416c-0.247 0.22-1.148-0.795-2.003-2.256-0.854-1.462-2.675-5.691-2.427-5.911 0.248-0.221 1.256 0.608 2.24 1.842 0.985 1.231 1.865 2.982 1.741 3.093s-0.148 0.494-0.052 0.853c0.097 0.357 0.749 2.157 0.501 2.379m-50.403 41.333c-0.729-0.572-1.163-1.367-0.963-1.767 0.2-0.397 1.479-2.522 2.78-3.679 1.303-1.156 6.248-1.115 6.372-1.225s0.773 0.313 1.441 0.939c0.667 0.628 2.791 2.666 3.216 3.396l-2.028 1.8-2.256 2.004c-2.946 0.178-5.51 0.459-5.695 0.624-0.187 0.167-2.138-1.52-2.867-2.092m-21.535 53.405c1.763 0.985 3.104 1.882 2.979 1.991-0.124 0.111-1.994 0.048-4.157-0.139-2.162-0.187-7.71-3.437-7.586-3.546 0.124-0.111 0.36-0.049 0.525 0.137s0.498 0.254 0.739 0.15 5.737 0.422 7.5 1.407m11.242 6.756c0.248-0.222 0.676-0.147 0.951 0.161 0.274 0.311 0.297 0.744 0.049 0.965-0.248 0.22-0.676 0.146-0.951-0.163-0.276-0.31-0.297-0.743-0.049-0.963m27.235 19.769c-1.35 0.977-2.771 1.421-3.155 0.987-0.386-0.435 0.438-1.347 1.829-2.026 1.391-0.681 5.876-2.014 5.986-1.89 0.11 0.125-0.154 0.542-0.59 0.928-0.434 0.386-0.88 0.6-0.99 0.476-0.11-0.126-1.729 0.548-3.08 1.525m-45.65 54.861c0.302-0.158 0.685-0.137 0.85 0.05 0.166 0.186-0.054 0.654-0.488 1.039s-2.254 1.095-4.045 1.576c-1.79 0.48-7.078 2.019-7.464 1.586-0.386-0.435-0.244-1.195 0.314-1.691 0.558-0.495 1.634-0.816 2.392-0.713 0.757 0.104 3.223-0.46 3.332-0.336 0.11 0.125 0.657-0.18 1.216-0.675 0.559-0.496 1.296-0.788 1.64-0.65s1.95-0.029 2.253-0.186m227.21-185.9 2.205-1.958c2.259 0.594 4.603 0.639 5.209 0.101 0.605-0.537 1.454-0.582 1.884-0.098s1.255 0.813 1.832 0.732c0.579-0.081 5.117 3.06 8.532 7.391 3.415 4.332-11.958 19.048-19.088 19.316l-3.521-3.964-0.39-0.439c-0.214-0.241-0.093-0.703 0.271-1.026 0.363-0.322 0.044-1.28-0.71-2.13-0.754-0.849-1.172-1.72-0.929-1.935 0.242-0.216 1e-3 -0.887-0.536-1.492s-0.777-1.276-0.535-1.491c0.242-0.216 0.068-3.605-0.388-7.533zm4.131 117.16c-0.757-0.104-1.021-0.504-0.587-0.89 0.434-0.387 1.172-0.68 1.64-0.652 0.467 0.027-0.295 1.644-1.053 1.542m64.59-10.375c0.124-0.111-0.033-0.698-0.35-1.305-0.318-0.608-0.757-2.372-0.275-2.579s2.612 1.941 2.502 2.815-1.017 2.491-1.401 2.058c-0.386-0.435-0.6-0.879-0.476-0.989m1.688 5.758c-0.281-2.188-0.196-3.625 0.188-3.19 0.386 0.434 0.779 1.081 0.875 1.438 0.097 0.357 0.399 2.468 0.274 2.579-0.124 0.11 0 0.454 0.274 0.765 0.276 0.311 0.395 0.75 0.264 0.978-0.131 0.227 0.052 1.191 0.437 1.626 0.385 0.434 0.447 1.014 0.137 1.29-0.311 0.272-2.168-3.297-2.449-5.486m-146.12 131.78c0.248-0.22 0.677-0.147 0.953 0.163 0.274 0.31 0.297 0.745 0.049 0.966-0.249 0.22-0.678 0.146-0.953-0.163-0.277-0.31-0.298-0.745-0.049-0.966m21.588-9.294c-0.385-0.435-0.599-0.88-0.474-0.99 0.124-0.11-0.168-0.848-0.649-1.639-0.481-0.79-1.725-2.701-1.539-2.866 0.187-0.166 0.861 0.595 1.501 1.689 0.639 1.096 2.212 4.283 2.088 4.394s-0.542-0.155-0.927-0.588m-63.588 53.051c0.309-0.275 1.469 1.235 2.576 3.356 1.107 2.12 3.187 7.654 3.063 7.765-0.124 0.109-0.676-0.308-1.227-0.929s-1.594-2.51-2.315-4.196c-0.721-1.688-2.407-5.721-2.097-5.996m66.884-52.746c0.213 0.365 0.235 0.8 0.049 0.965s-0.513 1e-3 -0.726-0.363c-0.212-0.367 0.464-0.969 0.677-0.602m-1.416 2.267c-0.125 0.109-0.368 0.143-0.54 0.072-0.173-0.069-0.011-1.147 0.264-0.838 0.276 0.311 0.4 0.655 0.276 0.766m2.214 2.266c0.199 0.6 0.211 1.225 0.025 1.389-0.186 0.165-0.878-0.309-1.539-1.053-0.66-0.745-0.942-1.674-0.626-2.066 0.317-0.391 1.233-1.335 1.452-1.088 0.22 0.246 0.489 2.219 0.688 2.818m1.199 4.981c0.061 0.943 0.201 1.817 0.313 1.942 0.11 0.125 0.101 0.317-0.023 0.427s-0.54-0.154-0.925-0.589c-0.386-0.434-0.865-1.281-1.065-1.881-0.202-0.599 1.641-0.841 1.7 0.101m2.428 7.727c-0.076 0.29-0.047 0.629 0.063 0.753 0.11 0.123 0.097 0.315-0.027 0.425s-0.766-0.408-1.427-1.151c-0.661-0.745-0.847-1.67-0.413-2.055 0.435-0.386 1.104-0.346 1.49 0.088 0.385 0.434 0.389 1.65 0.314 1.94m-2.946 58.673 0.398 0.45c0.676 0.51 1.026 1.106 0.778 1.328-0.249 0.221-0.542 0.3-0.652 0.176-0.108-0.123-0.352-0.089-0.538 0.076s-0.789-0.207-1.34-0.828c-0.551-0.62-1.103-1.038-1.227-0.929-0.123 0.109-0.404-2e-3 -0.624-0.25-0.219-0.247-0.501-0.359-0.625-0.249s-0.633-0.257-1.128-0.815c-0.496-0.559-1.145-0.981-1.44-0.939s-1.367 0.047-1.588-0.202c-0.221-0.248-0.503-0.361-0.627-0.251-0.125 0.109-1.369-0.78-2.766-1.979-1.397-1.198-4.985-4.537-4.73-4.873 0.255-0.337 1.098-1.217 1.564-1.189 0.468 0.026 1.595 0.434 1.979 0.867 0.385 0.435 0.802 0.699 0.926 0.59 0.125-0.111 0.497 0.104 0.827 0.476 0.331 0.372 0.702 0.586 0.826 0.478 0.123-0.11 0.449 0.053 0.724 0.361 0.274 0.31 0.651 0.427 0.837 0.261 0.187-0.165 0.892 0.117 1.567 0.628l0.399 0.448c0.603 0.68 1.179 1.784 1.776 2.459l0.804 0.903c1.268 0.426 2.832 1.576 3.479 2.555zm-20.91 32.083c0.543 0.736 0.733 1.564 0.423 1.839-0.311 0.276-1.577-1.049-2.815-2.942-1.237-1.896-0.507-5.112 0.153-4.369 0.659 0.743 1.042 1.583 0.85 1.865-0.191 0.282 0.846 2.87 1.389 3.607" clip-path="url(#SVGID_2_)" fill="#C7C7C6"/>
</g>
<g transform="translate(-478.25 -77.395)">
	<defs>
		<rect id="SVGID_3_" x="8.446" width="1240" height="709"/>
	</defs>
	<clipPath id="SVGID_4_">
		<use width="100%" height="100%" overflow="visible" xlink:href="#SVGID_3_"/>
	</clipPath>
    <line x2="10.425" y1="70.901" y2="70.901" clip-path="url(#SVGID_4_)" fill="none" stroke="#E71E73" stroke-dasharray="2.979,2.979,2.979,2.979" stroke-miterlimit="10" stroke-width=".3"/>
</g><g fill="none" stroke="#E71E73" stroke-miterlimit="10" stroke-width=".3">
<line x1="766.82" x2="768.32" y1="-6.4941" y2="-6.4941"/>
<line x1="766.59" x2="768.09" y1="560.31" y2="560.31"/>
<line x1="698.53" x2="698.53" y1="628.59" y2="630.09"/>
<path d="m211.27 75.725h1.333z" stroke-dasharray="3,3,3,3,3,3"/>
<line x1="-56.776" x2="-56.776" y1="627.09" y2="630.09"/>
<line x1="-8.7195" x2="-8.7195" y1="628.59" y2="630.09"/>
<line x1="-106.19" x2="-106.19" y1="628.59" y2="630.09"/>
</g></svg>
