<?xml version="1.0" encoding="UTF-8"?>
<svg width="66.827mm" height="128.29mm" version="1.1" viewBox="0 0 66.827 128.29" xmlns="http://www.w3.org/2000/svg">
 <g transform="translate(-7.6726 -9.9389)">
  <rect class="st13" x="62.716" y="44.998" width="2.3548" height="2.249" fill="none" stroke-width=".26458"/>
  <rect class="st13" x="58.8" y="49.258" width="2.3548" height="2.249" fill="none" stroke-width=".26458"/>
  <polygon class="st15" transform="matrix(.26458 0 0 .26458 -227.96 -68.006)" points="1088.3 449.4 1086.1 451 1087 448.4 1084.8 446.8 1087.5 446.8 1088.3 444.2 1089.2 446.8 1091.9 446.8 1089.7 448.4 1090.5 451" fill="#b2b2b2" stroke="#b2b2b2" stroke-width=".6"/>
  <rect class="st13" x="55.334" y="47.723" width="2.3548" height="2.249" fill="none" stroke-width=".26458"/>
  <polygon class="st15" transform="matrix(.26458 0 0 .26458 -227.96 -68.006)" points="1075.1 443.5 1072.9 445.1 1073.8 442.5 1071.6 440.9 1074.3 440.9 1075.1 438.3 1076 440.9 1078.7 440.9 1076.5 442.5 1077.3 445.1" fill="#b2b2b2" stroke="#b2b2b2" stroke-width=".6"/>
  <rect class="st13" x="51.233" y="46.612" width="2.3548" height="2.249" fill="none" stroke-width=".26458"/>
  <polygon class="st15" transform="matrix(.26458 0 0 .26458 -227.96 -68.006)" points="1059.7 439.3 1057.5 440.9 1058.3 438.3 1056.2 436.7 1058.9 436.7 1059.7 434.2 1060.5 436.7 1063.3 436.7 1061.1 438.3 1061.9 440.9" fill="#b2b2b2" stroke="#b2b2b2" stroke-width=".6"/>
  <rect class="st13" x="44.38" y="47.591" width="2.3548" height="2.249" fill="none" stroke-width=".26458"/>
  <polygon class="st15" transform="matrix(.26458 0 0 .26458 -227.96 -68.006)" points="1033.8 443 1031.6 444.6 1032.4 442 1030.2 440.4 1033 440.4 1033.8 437.8 1034.6 440.4 1037.3 440.4 1035.1 442 1036 444.6" fill="#b2b2b2" stroke="#b2b2b2" stroke-width=".6"/>
  <rect class="st13" x="41.337" y="46.268" width="2.3548" height="2.249" fill="none" stroke-width=".26458"/>
  <polygon class="st15" transform="matrix(.26458 0 0 .26458 -227.96 -68.006)" points="1022.3 438 1020.1 439.6 1020.9 437 1018.7 435.4 1021.5 435.4 1022.3 432.8 1023.1 435.4 1025.8 435.4 1023.7 437 1024.5 439.6" fill="#b2b2b2" stroke="#b2b2b2" stroke-width=".6"/>
  <rect class="st13" x="36.972" y="46.824" width="2.3548" height="2.249" fill="none" stroke-width=".26458"/>
  <polygon class="st15" transform="matrix(.26458 0 0 .26458 -227.96 -68.006)" points="1005.7 440.1 1003.5 441.7 1004.4 439.1 1002.2 437.6 1004.9 437.6 1005.7 435 1006.6 437.6 1009.3 437.6 1007.1 439.1 1007.9 441.7" fill="#b2b2b2" stroke="#b2b2b2" stroke-width=".6"/>
  <rect class="st13" x="28.77" y="47.088" width="2.3548" height="2.249" fill="none" stroke-width=".26458"/>
  <polygon class="st15" transform="matrix(.26458 0 0 .26458 -227.96 -68.006)" points="974.8 441.2 972.6 442.8 973.4 440.2 971.2 438.6 973.9 438.6 974.8 436 975.6 438.6 978.3 438.6 976.1 440.2 977 442.8" fill="#b2b2b2" stroke="#b2b2b2" stroke-width=".6"/>
  <rect class="st13" x="24.404" y="45.712" width="2.3548" height="2.249" fill="none" stroke-width=".26458"/>
  <polygon class="st15" transform="matrix(.26458 0 0 .26458 -227.96 -68.006)" points="958.3 435.9 956.1 437.5 956.9 434.9 954.7 433.3 957.4 433.3 958.3 430.8 959.1 433.3 961.8 433.3 959.6 434.9 960.5 437.5" fill="#b2b2b2" stroke="#b2b2b2" stroke-width=".6"/>
  <g fill="none" stroke-width=".26458">
   <rect class="st13" x="17.948" y="45.474" width="2.3548" height="2.249"/>
   <rect class="st13" x="11.387" y="50.21" width="2.3548" height="2.249"/>
   <rect class="st13" x="11.651" y="51.745" width="2.3548" height="2.249"/>
   <rect class="st13" x="12.551" y="63.36" width="2.3548" height="2.249"/>
   <rect class="st13" x="8.5026" y="71.88" width="2.3548" height="2.249"/>
   <rect class="st13" x="11.836" y="67.038" width="2.3548" height="2.249"/>
   <rect class="st13" x="16.096" y="69.71" width="2.3548" height="2.249"/>
   <rect class="st13" x="20.303" y="72.197" width="2.3548" height="2.249"/>
   <rect class="st13" x="22.896" y="77.859" width="2.3548" height="2.249"/>
   <rect class="st13" x="26.388" y="66.509" width="2.3548" height="2.249"/>
  </g>
  <polygon class="st15" transform="matrix(.26458 0 0 .26458 -227.96 -68.006)" points="965.7 514.5 963.5 516.1 964.4 513.6 962.2 512 964.9 512 965.7 509.4 966.6 512 969.3 512 967.1 513.6 967.9 516.1" fill="#b2b2b2" stroke="#b2b2b2" stroke-width=".6"/>
  <rect class="st13" x="30.278" y="70.795" width="2.3548" height="2.249" fill="none" stroke-width=".26458"/>
  <rect class="st13" x="34.538" y="70.451" width="2.3548" height="2.249" fill="none" stroke-width=".26458"/>
  <polygon class="st15" transform="matrix(.26458 0 0 .26458 -227.96 -68.006)" points="996.6 529.4 994.4 531 995.2 528.5 993 526.9 995.8 526.9 996.6 524.3 997.4 526.9 1000.2 526.9 998 528.5 998.8 531" fill="#b2b2b2" stroke="#b2b2b2" stroke-width=".6"/>
  <g fill="none" stroke-width=".26458">
   <rect class="st13" x="47.925" y="73.996" width="2.3548" height="2.249"/>
   <rect class="st13" x="56.392" y="78.23" width="2.3548" height="2.249"/>
   <rect class="st13" x="64.965" y="73.203" width="2.3548" height="2.249"/>
   <rect class="st13" x="68.219" y="77.515" width="2.3548" height="2.249"/>
   <rect class="st13" x="71.077" y="75.875" width="2.3548" height="2.249"/>
  </g>
  <path class="st18" d="m20.541 58.254s-5.3446-20.479 18.256-27.728c0 0 28.416-0.34395 23.918 27.887 0 0-17.198-43.736-42.175-0.15875z" fill="#010202" stroke-width=".26458"/>
  <g transform="matrix(.26458 0 0 .26458 -227.96 -68.006)">
   <path class="st21" d="m1141 553.8c0.8-0.8 2.4-0.4 2.1 0.9-1 5-8.1 6.7-12.1 4.6-0.6-0.3-1.1-0.7-1.7-1.1-8.1 8.7-19.3 13.4-31.2 14.7l-0.3-2.6c1.2-0.1 2.3-0.3 3.5-0.5 10.2-1.9 19.2-6.7 26.1-13.9-1.5-2.7-1.5-6.2 0.3-8.9 0.6-0.9 1.8 0 1.5 0.9-0.6 1.8-0.6 4 0.1 5.8 1.4-1.7 2.8-3.5 4-5.5 0.8-1.3 2.9 0.1 2.2 1.3-1.3 2.4-2.8 4.6-4.4 6.6 0.4 0.3 0.8 0.6 1.3 0.8 3.6 1.6 6.2-0.8 8.6-3.1z"/>
   <path class="st21" d="m1097.8 570.4 0.3 2.6c-14.7 1.7-30.5-1.7-42.7-9l-0.3-2.2h0.6c13.8 5.4 27.4 10.2 42.1 8.6z"/>
  </g>
  <g transform="matrix(.26458 0 0 .26458 -227.96 -68.006)">
   <path class="st21" d="m892.7 547.9c-0.8-0.8-2.4-0.4-2.1 0.9 1 5 8.1 6.7 12.1 4.6 0.6-0.3 1.1-0.7 1.7-1.1 8.1 8.7 19.3 13.4 31.2 14.7l0.3-2.6c-1.2-0.1-2.3-0.3-3.5-0.5-10.2-1.9-19.2-6.7-26.1-13.9 1.5-2.7 1.5-6.2-0.3-8.9-0.6-0.9-1.8 0-1.5 0.9 0.6 1.8 0.6 4-0.1 5.8-1.4-1.7-2.8-3.5-4-5.5-0.8-1.3-2.9 0.1-2.2 1.3 1.3 2.4 2.8 4.6 4.4 6.6-0.4 0.3-0.8 0.6-1.3 0.8-3.7 1.7-6.2-0.7-8.6-3.1z"/>
   <path class="st21" d="m935.9 564.5-0.3 2.6c14.7 1.7 30.5-1.7 42.7-9l0.3-2.2h-0.6c-13.8 5.5-27.4 10.3-42.1 8.6z"/>
  </g>
  <g transform="matrix(.26458 0 0 .26458 -227.96 -68.006)">
   <path class="st21" d="m983.4 721.8 2.2 0.5c-1.2 8.8-3.4 17.5-5.3 26.2-2 9.1-3.9 18.2-6.1 27.2-0.3 1.3-1.7 1.6-2.6 1.2-4.4 1.3-9.3 2.1-13.5-0.4-3.4-2.1-5.3-6.2-3.6-10.1 1.9-4.3 6.5-4.5 10.4-2.9 3 1.2 5.4 3.3 7.2 5.9 1.6-7.4 3.4-14.9 5.1-22.3 2-8.4 3.6-17 6.2-25.3zm-12.4 52.8c0-0.1 0-0.2 0.1-0.3-1-2.6-2.5-4.8-4.8-6.5-2.5-1.8-7.7-3.9-8.8 0.4-0.9 3.5 2.5 5.9 5.5 6.6 2.6 0.7 5.4 0.2 8-0.2z"/>
  </g>
  <g transform="matrix(.26458 0 0 .26458 -227.96 -68.006)">
   <path class="st20" d="m971.1 774.3c0 0.1 0 0.2-0.1 0.3-2.7 0.4-5.4 0.9-8 0.3-3-0.7-6.4-3.1-5.5-6.6 1.1-4.3 6.3-2.2 8.8-0.4 2.3 1.6 3.8 3.8 4.8 6.4z"/>
  </g>
  <g transform="matrix(.26458 0 0 .26458 -227.96 -68.006)">
   <path class="st21" d="m1049.6 748.4c1.7 7.4 3.5 14.8 5.1 22.3 1.8-2.6 4.2-4.7 7.2-5.9 3.9-1.6 8.5-1.4 10.4 2.9 1.7 3.9-0.2 8-3.6 10.1-4.2 2.5-9 1.8-13.5 0.4-0.9 0.4-2.3 0.1-2.6-1.2-2.2-9-4.1-18.1-6.1-27.2-1.9-8.6-4.1-17.4-5.3-26.2l2.2-0.5c2.6 8.3 4.3 16.9 6.2 25.3zm14.2 27.8c3-0.7 6.4-3.1 5.5-6.6-1.1-4.3-6.3-2.2-8.8-0.4-2.3 1.6-3.8 3.9-4.8 6.5 0 0.1 0 0.2 0.1 0.3 2.7 0.3 5.4 0.8 8 0.2z"/>
  </g>
  <g transform="matrix(.26458 0 0 .26458 -227.96 -68.006)">
   <path class="st20" d="m1055.7 775.6c0 0.1 0 0.2 0.1 0.3 2.7 0.4 5.4 0.9 8 0.3 3-0.7 6.4-3.1 5.5-6.6-1.1-4.3-6.3-2.2-8.8-0.4-2.2 1.6-3.8 3.8-4.8 6.4z"/>
  </g>
  <g transform="matrix(.26458 0 0 .26458 -227.96 -68.006)">
   <path class="st18" d="m1001.8 392.1c-4.4 2.3-9.3 3.8-14.3 4.4-4.4 0.6-9.7 0-12.1-3.7-2.8-4.4 0.1-10.1 3-14.5-9.1 4.7-21.9-0.9-24.6-10.8s5.4-21.2 15.6-21.9c-6.2-8.8-5.1-21.9 2.4-29.5s20.6-8.9 29.5-2.9c5.8-10 16-18.3 27.6-18.6s23.4 9.6 22.3 21.2c7.6-8.1 22.1-8.5 29.6-0.4 7.6 8.1 5.9 23.1-3.6 28.8 6.9-3 15.4 2.7 16.8 10.1s-3 15-9.3 19.1-14.1 5.2-21.6 5.3c-1.8 8.2-8.3 15.1-16.3 17.4s-17.2-0.2-23-6.1c-6.8 7.4-18.3 10-27.6 6.3"/>
  </g>
  <path class="st24" d="m32.421 73.044s-0.34396 4.1275 3.0956 1.3758c0 0-0.34396 3.9688 2.5929 1.3758 0 0 0.87313 3.6248 3.0956 0.52917 0 0 1.7198 3.7835 3.6248-0.18521 0 0 2.9369 2.4077 2.5929-1.7198 0 0 2.7517 2.7517 2.249-1.905l8.599 44.767c-18.759 16.192-36.486 0.34395-36.486 0.34395l10.848-45.455" fill="#878787" stroke="#010202" stroke-miterlimit="10" stroke-width=".52917"/>
  <g fill="#fff" stroke="#010202" stroke-miterlimit="10" stroke-width=".26458">
   <circle class="st25" cx="40.861" cy="82.331" r="1.1112"/>
   <circle class="st25" cx="40.861" cy="87.675" r="1.1112"/>
   <circle class="st25" cx="40.861" cy="93.02" r="1.1112"/>
   <circle class="st25" cx="40.861" cy="98.364" r="1.1112"/>
   <circle class="st25" cx="40.861" cy="103.68" r="1.1112"/>
  </g>
  <g transform="matrix(.26458 0 0 .26458 -227.96 -68.006)">
   <path class="st25" d="m1023.5 379.5s15.7-26.9 22.2-18.6c6.6 8.3-2.5 16.1-2.5 16.1s13.7 9.5 4.1 15.3c-9.5 5.9-23.2-12.1-23.8-12.8z"/>
   <path class="st25" d="m1023.2 380.2s-11.6-28.9-19.3-21.6 0.1 16.3 0.1 16.3-14.9 7.4-6.3 14.5c8.7 7.2 24.8-8.6 25.5-9.2z"/>
   <circle class="st25" cx="1023.5" cy="379.5" r="4.2"/>
  </g>
  <ellipse class="st26" cx="41.708" cy="56.216" rx="21.114" ry="17.595" fill="#b3b2b2" stroke="#010202" stroke-miterlimit="10" stroke-width=".26458"/>
  <g transform="matrix(.26458 0 0 .26458 -227.96 -68.006)">
   <path class="st21" d="m1050.4 455.2c1.6 1.9 2.4 4.3 2.2 6.8-0.1 1.9-0.9 4.8-2.9 5.5-2.5 0.8-4.1-1.8-4.6-3.8-0.7-2.8 0.2-5.5 1.2-8 0.3-0.8 1.2-0.8 1.7-0.3 0.4-1 1.8-0.9 2.4-0.2z"/>
  </g>
  <g transform="matrix(.26458 0 0 .26458 -227.96 -68.006)">
   <path class="st21" d="m1079.1 494c1.1-0.8 2.4 0.9 1.3 1.7-14.7 11.2-33 17.3-51.4 18.6l-0.1-1.8c18.1-1.3 35.2-8.1 50.2-18.5z"/>
   <path class="st21" d="m1028.9 512.4 0.1 1.8c-4.2 0.3-8.4 0.3-12.6 0.1-22.7-1.3-48-11.5-62.8-29.4-0.6-0.7 0.5-1.7 1.1-1.1 8.9 7.6 17.8 14.8 28.5 19.7 10.3 4.8 21.4 7.7 32.7 8.7 4.4 0.5 8.7 0.5 13 0.2z"/>
  </g>
  <g transform="matrix(.26458 0 0 .26458 -227.96 -68.006)">
   <path class="st21" d="m994.6 456c1 2.3 1.6 5.3 0.8 7.8-0.7 2.2-3.1 2.9-4.8 1.4-2.6-2.4-3.1-9 0.8-10.4 0.5-0.2 0.9 0 1.2 0.3 0.7-0.2 1.6 0.1 2 0.9z"/>
  </g>
  <path class="st27" d="m32.606 72.197s9.2869 9.1281 17.039 0.34396c0 0-3.6248 2.7517-17.039-0.34396z" fill="#c7c6c7" stroke="#010202" stroke-miterlimit="10" stroke-width=".26458"/>
 </g>
</svg>
