<?xml version="1.0" encoding="UTF-8" standalone="no"?>
<!-- source: https://openclipart.org/detail/93925/birthday-icon-by-nicubunu-93925 -->
<svg xmlns="http://www.w3.org/2000/svg" viewBox="0 0 48 48" version="1.1">
    <defs id="defs3">
        <radialGradient id="radialGradient2872" gradientUnits="userSpaceOnUse" cy="19.124" cx="7.3137" gradientTransform="matrix(1.708 .92024 -.69883 1.297 6.8727 -15.535)" r="8.579">
            <stop
                    id="stop3615"
                    style="stop-color:#ff5959"
                    offset="0"
            />
            <stop
                    id="stop3617"
                    style="stop-color:#d90000"
                    offset="1"
            />
        </radialGradient>
        <radialGradient
                id="radialGradient2990"
                gradientUnits="userSpaceOnUse"
                cy="20.687"
                cx="33.555"
                gradientTransform="matrix(1.3838 1.7684e-7 -2.0276e-7 1.494 -13.432 -10.906)"
                r="9.3946"
        >
            <stop
                    id="stop3766"
                    style="stop-color:#7ed249"
                    offset="0"
            />
            <stop
                    id="stop3768"
                    style="stop-color:#286325"
                    offset="1"
            />
        </radialGradient>
        <radialGradient
                id="radialGradient3776"
                gradientUnits="userSpaceOnUse"
                cy="8.818"
                cx="20.846"
                gradientTransform="matrix(0.768 1.408 -1.4417 .78637 17.703 -29.285)"
                r="7.8125"
        >
            <stop
                    id="stop3772"
                    style="stop-color:#d1f6f6"
                    offset="0"
            />
            <stop
                    id="stop3774"
                    style="stop-color:#2adbdb"
                    offset="1"
            />
        </radialGradient>
        <filter
                id="filter3796"
                height="1.3755"
                width="1.3496"
                y="-.18777"
                x="-.17481"
        >
            <feGaussianBlur
                    id="feGaussianBlur3798"
                    stdDeviation="0.74235189"
            />
        </filter>
        <filter
                id="filter3800"
                height="1.3239"
                width="1.8013"
                y="-.16197"
                x="-.40063"
        >
            <feGaussianBlur
                    id="feGaussianBlur3802"
                    stdDeviation="0.74235189"
            />
        </filter>
        <filter
                id="filter3804"
                height="1.3882"
                width="1.5513"
                y="-.19411"
                x="-.27566"
        >
            <feGaussianBlur
                    id="feGaussianBlur3806"
                    stdDeviation="0.74235189"
            />
        </filter>
        <filter
                id="filter3634"
                height="2.1987"
                width="1.4121"
                y="-.59935"
                x="-.20603"
        >
            <feGaussianBlur
                    id="feGaussianBlur3636"
                    stdDeviation="1.2140306"
            />
        </filter>
    </defs>
    <path
            id="path3832"
            style="filter:url(#filter3634);fill-rule:evenodd;fill:#000000;fill-opacity:.76860"
            d="m32.792 43.713a7.0711 2.4307 0 1 1 -14.142 0 7.0711 2.4307 0 1 1 14.142 0z"
            transform="matrix(.39263 0 0 .38220 13.657 27.275)"
    />
    <path
            id="path3818"
            style="block-progression:tb;text-indent:0;color:#000000;text-transform:none;fill:#1a1a1a"
            d="m28.531 34.469c-0.97596 3.0683-1.9839 5.3749-3.3125 6.875s-2.5618 2.4234-3.2243 4.5855l0.506 0.071c0.58648-1.9141 2.0529-2.6907 3.4062-4.2188s2.0621-4.057 3.0885-7.2839l-0.464-0.028z"
    />
    <path
            id="path3816"
            style="block-progression:tb;text-indent:0;color:#000000;text-transform:none;fill:#1a1a1a"
            d="m16.75 32.812-0.62105 0.19836c0.5967 3.4855 1.5906 6.2629 3.4336 8.0516 1.843 1.7888 4.6003 2.5772 5.2757 4.5312l0.474-0.312c-0.798-2.312-3.359-3.194-5.156-4.937-1.796-1.744-2.856-4.317-3.406-7.532z"
    />
    <path
            id="path3814"
            style="block-progression:tb;text-indent:0;color:#000000;text-transform:none;fill:#1a1a1a"
            d="m23.75 26.188-0.62105 0.19836c-0.60209 3.6132 1.4005 5.5968 1.3 8.1163-0.16158 4.0503-1.5897 7.7194-1.0704 12.32l0.579 0.084c-0.703-5.61 1.209-7.986 1.241-12.343 0.02-2.719-1.958-5.003-1.429-8.375z"
    />
    <path
            id="path2858"
            style="fill:url(#radialGradient3776);fill-rule:evenodd"
            d="m23 1c-7.0144 0.11548-7.6562 3.8995-7.6562 10.219 0 5.7044 2.788 11.228 6.5 12.25 0.0027 0.91667-0.05854 1.8333-0.875 2.75 1.0923 0.40206 2.2728 0.74236 5 0-0.76343-0.88898-2.0475-1.6738-1.25-2.875 3.5406-1.2963 6.25-6.6291 6.25-12.125 0-6.3195-0.796-10.337-7.969-10.219z"
    />
    <path
            id="path2866"
            style="fill:url(#radialGradient2872);fill-rule:evenodd"
            d="m8 10c-6.5826 2.4257-5.9387 6.2093-3.8516 12.174 1.884 5.3843 6.3399 9.6773 10.181 9.4158 0.3053 0.86434 0.55025 1.7498 0.08236 2.8847 1.1638 0.01875 2.3905-0.04996 4.7194-1.6514-1.0142-0.58695-2.4855-0.90364-2.1294-2.3008 2.9138-2.3929 3.7099-8.3213 1.8947-13.509-2.087-5.965-4.164-9.4947-10.896-7.014z"
    />
    <path
            id="path2868"
            style="fill:url(#radialGradient2990);fill-rule:evenodd"
            d="m41 13c-6.1355-3.4015-8.5807-0.4431-11.735 5.0325-2.8476 4.9428-3.1893 11.121-0.48295 13.859-0.45526 0.79563-0.96592 1.5593-2.131 1.9461 0.74575 0.89365 1.5988 1.7778 4.3324 2.496-0.21773-1.1514-0.93861-2.4725 0.35207-3.1152 3.715 0.64421 8.7248-2.6241 11.468-7.3862 3.155-5.476 4.472-9.354-1.803-12.833z"
    />
    <path
            id="path3778"
            style="fill-opacity:.86222;color:#000000;filter:url(#filter3800);fill:#ffffff"
            d="m8 11s-2.4693 0.21079-4 3c-1.4211 2.5895 1 8 1 8-0.069955-3.5953-0.21074-7.186 3-11z"
    />
    <path
            id="path3780"
            style="fill-opacity:.86222;color:#000000;filter:url(#filter3804);fill:#ffffff"
            d="m22.168 1.9395s-1.3986-1.111-3.9693 0.7636c-2.387 1.7404-2.494 8.0879-2.494 8.0879 1.464-3.2843 1.936-6.763 6.463-8.8515z"
    />
    <path
            id="path3782"
            style="fill-opacity:.86222;color:#000000;filter:url(#filter3796);fill:#ffffff"
            d="m38.442 13.009s-0.47589-1.4139-3.5235-0.50028c-2.8294 0.84817-6.6687 9.1811-6.6687 9.1811 2.4726-2.611 5.2284-8.2157 10.192-8.6808z"
    />
    <path
            id="path3808"
            style="color:#000000;fill:#1a1a1a"
            d="m14.358 32.379c0.98566 0.58874 2.0666-0.18515 3.1579-0.54737 0.29336-0.45093 0.15559-0.84027-0.33684-1.1789-0.88411 0.4885-1.6922 1.0379-3.1158 1.0947-0.02318 0.3165-0.01026 0.42447 0.29474 0.63158z"
    />
    <path
            id="path3810"
            style="color:#000000;fill:#1a1a1a"
            d="m21.6 24.192c0.72165 0.89295 2.0033 0.54004 3.1526 0.57705 0.43106-0.32185 0.43624-0.73482 0.09109-1.2227-0.99842 0.15307-1.9465 0.38952-3.3022-0.04882-0.13107 0.28901-0.15624 0.39481 0.05845 0.69451z"
    />
    <path
            id="path3812"
            style="color:#000000;fill:#1a1a1a"
            d="m28.19 32.304c0.19689 1.1311 1.4886 1.4454 2.4751 2.0361 0.53313-0.07188 0.73832-0.4303 0.6737-1.0245-0.94703-0.35131-1.8905-0.60528-2.8625-1.6471-0.25498 0.18892-0.32838 0.26916-0.28635 0.63542z"
    />
</svg>
