<?xml version="1.0" encoding="UTF-8"?>
<svg version="1.1" viewBox="0 0 606.02 136.3" xml:space="preserve" xmlns="http://www.w3.org/2000/svg" xmlns:xlink="http://www.w3.org/1999/xlink">
<style type="text/css">
	.o0003st0{clip-path:url(#SVGID_2_);fill:#EDEDED;}
	.o0003st1{clip-path:url(#SVGID_4_);fill:#EDEDED;}
	.o0003st2{clip-path:url(#SVGID_6_);fill:#EDEDED;}
	.o0003st3{clip-path:url(#SVGID_8_);fill:#EDEDED;}
	.o0003st4{clip-path:url(#SVGID_10_);fill:#EDEDED;}
	.o0003st5{clip-path:url(#SVGID_12_);fill:#EDEDED;}
	.o0003st6{clip-path:url(#SVGID_14_);fill:#EDEDED;}
	.o0003st7{clip-path:url(#SVGID_16_);fill:#EDEDED;}
	.o0003st8{clip-path:url(#SVGID_18_);fill:#EDEDED;}
	.o0003st9{clip-path:url(#SVGID_20_);fill:#EDEDED;}
	.o0003st10{clip-path:url(#SVGID_22_);fill:#EDEDED;}
	.o0003st11{clip-path:url(#SVGID_24_);fill:#EDEDED;}
	.o0003st12{clip-path:url(#SVGID_26_);fill:#EDEDED;}
	.o0003st13{clip-path:url(#SVGID_28_);}
	.o0003st14{fill:#9D9D9C;}
	.o0003st15{clip-path:url(#SVGID_30_);}
	.o0003st16{clip-path:url(#SVGID_32_);}
	.o0003st17{clip-path:url(#SVGID_34_);}
	.o0003st18{opacity:0.5;clip-path:url(#SVGID_36_);}
	.o0003st19{opacity:0.6;clip-path:url(#SVGID_38_);}
	.o0003st20{opacity:0.8;clip-path:url(#SVGID_40_);}
	.o0003st21{opacity:0.8;clip-path:url(#SVGID_42_);}
	.o0003st22{clip-path:url(#SVGID_44_);}
	.o0003st23{fill:#FFFFFF;}
	.o0003st24{clip-path:url(#SVGID_46_);}
	.o0003st25{clip-path:url(#SVGID_48_);}
	.o0003st26{clip-path:url(#SVGID_50_);}
	.o0003st27{clip-path:url(#SVGID_52_);}
	.o0003st28{fill:#C6C6C6;}
	.o0003st29{display:none;}
	.o0003st30{display:inline;}
	.o0003st31{font-family:'Arial-Black';}
	.o0003st32{font-size:26px;}
	.o0003st33{font-size:15.158px;}
	.o0003st34{fill:none;stroke:#E71D73;stroke-width:0.3;stroke-miterlimit:10;}
	.o0003st35{fill:none;stroke:#E71D73;stroke-width:0.3;stroke-miterlimit:10;stroke-dasharray:2.9786,2.9786,2.9786,2.9786;}
	
		.o0003st36{fill:none;stroke:#E71D73;stroke-width:0.3;stroke-miterlimit:10;stroke-dasharray:2.9786,2.9786,2.9786,2.9786,2.9786,2.9786;}
	.o0003st37{fill:none;stroke:#E71D73;stroke-width:0.3;stroke-miterlimit:10;stroke-dasharray:2.9855,2.9855,2.9855,2.9855;}
	
		.o0003st38{fill:none;stroke:#E71D73;stroke-width:0.3;stroke-miterlimit:10;stroke-dasharray:2.9855,2.9855,2.9855,2.9855,2.9855,2.9855;}
	.o0003st39{fill:none;stroke:#E71D73;stroke-width:0.3;stroke-miterlimit:10;stroke-dasharray:3.0144,3.0144,3.0144,3.0144;}
	
		.o0003st40{fill:none;stroke:#E71D73;stroke-width:0.3;stroke-miterlimit:10;stroke-dasharray:3.0144,3.0144,3.0144,3.0144,3.0144,3.0144;}
	.o0003st41{display:inline;fill:none;stroke:#E71D73;stroke-width:0.3;stroke-miterlimit:10;stroke-dasharray:3,3,3,3,3,3;}
	.o0003st42{fill:none;stroke:#E71D73;stroke-width:0.3;stroke-miterlimit:10;stroke-dasharray:6.0814,6.0814;}
	.o0003st43{fill:none;stroke:#E71D73;stroke-width:0.3;stroke-miterlimit:10;stroke-dasharray:6.0814,6.0814,6.0814,6.0814;}
	.o0003st44{fill:none;stroke:#E71D73;stroke-width:0.3;stroke-miterlimit:10;stroke-dasharray:3.0189,3.0189,3.0189,3.0189;}
	
		.o0003st45{fill:none;stroke:#E71D73;stroke-width:0.3;stroke-miterlimit:10;stroke-dasharray:3.0189,3.0189,3.0189,3.0189,3.0189,3.0189;}
</style>
<g transform="translate(-526.08 -156.2)">
		
		
		
		
		
		
		
		
		
		
		
		
		
		
		
		
		
		
			<defs>
				<rect id="SVGID_35_" x="72.4" y="69.7" width="1096" height="567"/>
			</defs>
			<clipPath id="SVGID_36_">
				<use width="100%" height="100%" xlink:href="#SVGID_35_"/>
			</clipPath>
			<g class="o0003st18" clip-path="url(#SVGID_36_)">
				
					
						
							
								<path class="o0003st14" d="m527.1 251.7c1.8 2.5 5.1 2.8 8.1 3.3-2.2-2.4-4.7-3.4-8.1-3.3z"/>
								<path class="o0003st14" d="m535.3 255.1"/>
								<path class="o0003st14" d="m1129.7 177.7c-0.6 0.1-1.2 0.3-1.8 0.4 0.6 0 1.2-0.1 1.8-0.4z"/>
								<path class="o0003st14" d="m684.3 268.3 0.7-4c7.3 0.3 1.9 4.7 8.7 4 2.9-5.5 11.2 1.1 13.7-1.7-0.1 0.4 3.2 0.8 2.9 2.5 1.2-3 3.4-0.5 5.6-1.2 0.8-0.8-0.5-0.9-1-1.9l4.8-0.8c1.8 1.1 2.2 2.9 0.1 3.1 6.2 0.9 24.3 2.8 42.5 4.5s36.5 3.1 43.3 2.7c-1.6-2.4-5.8-1.1-7.2-4.8 3.7-1.8 5.2 1 6.9-1 1 5.5 7.7 1.8 10.1 7.4l1.2-3 1.7 2c15.8-2.2 3.7-1.3 17.5 0.2 8 0 12.1-4 16.5-2.1-0.7-0.1-2.3-2.1-0.2-2.7 0.2 2.7 5.7-1.6 6.5 1.2 2.1-0.2 8.6 0.6 6.6-3.3 1 1.9 6.8 3 3.2 4.4 2 0.2 3.9 0.9 5.3 0.2l-2.5-1.2c6.7-0.1 10.2 3 14.8-0.1l-2.4-1.6c4 0 7.4 0 8.7 3.7l-4.2 0.8c6.7 0.3 10.7 0.4 16.3-1.2l-2-0.2c7.3-3.2 44.4-3.6 51.3-7.7l-2.8-3 5.8-2c-0.7-0.1-3.4 9-3.8 8 6 0.3 24.6 1 43.1 2.1 18.5 1 36.8 2.4 42.3 3.8 4.3 1.9 0.4 4.5 0.4 5 5.5-0.6 2.6-2.8 7.2-2.2 1.2 0.6-0.4 2.2-1.2 2.5 2.1-0.2 3.9 1 4.2-0.4-2.5-1.2-1.1-4.6-2-7l6 0.8-0.4 2.2c1.3 0.2 3.9-5.8 9.9-4.2 10.2 1.7 21.7 1.6 32.6 2.3-0.2 1.3-2.5 2.1-4.8 2.8 1.4 0.1 3.7-0.2 5.1 0.8-2.6-2.4 4.6-1.5 2.6-2.5 2-1.3 4.2-2 6.4-2.4s4.5-0.4 6.8-0.4 4.6 0 6.7-0.2c2.2-0.3 4.2-0.7 5.9-1.8 0.1-1.2 0.8-7.1 1.6-15.4s1.7-18.9 2.4-29.5c0.6-10.7 1-21.3 1.1-29.6s-0.1-14.4-0.2-15.8c1.5-0.1 3-0.2 3.5 0.2-0.6-1.3-3.5-1.6-5-0.6l0.1 3.1c-3.6 1.5-1-1.7-4.6-1.2-0.4-2.5 2.8-3.4 5.6-3.9-1.3 0-2.6-0.4-3.7-0.4s-2 0.3-2.4 1.7c-2.6-0.9 0-3.1-3-4-1 0.5-2.2 1.3-3.5 1.9-1.2 0.6-2.6 0.9-3.9 0.2v-0.4c-3.1-1.2-5.5-0.2-7.8 0.8-2.4 1-4.7 1.9-7.8 0.6l0.7-0.8c-2.1-1.5-6.4 0.4-10.3-1.4 1.1 0.6 2 2.4-0.4 2.6-4.5-1.8-7.9-0.4-11.2-2.6 0 0-0.9 0.6-1.8 1.1-0.9 0.6-1.8 1.1-1.8 1.1-4.2-0.4-11.6-0.8-21.1-1.3s-20.7-0.9-31.9-1.4c-11.2-0.4-22.4-0.8-31.9-1.1s-17.4-0.6-21.9-0.8l0.7-0.3c-27.7-0.8-84.3-4.8-113.1-3.1-4.3-2.7-10.4-2.5-14.9-3.5 2.5 1.2 1.5 2.9-0.5 2.6-14-1.1-1 1.6-15.3 1.8-8.2 0.7-27.9-0.6-47.4-2.3-19.4-1.7-38.6-3.9-45.8-5.3-8 3.2-17.6 0-25.3 1.9l0.8-0.8c-8.3 0.9-54.5-4.6-64.1-3.7l1.3 0.6c-8.4 1.9-7.1-2-13.6-3.6 0.7 4.1-6.5 6.1-9.3 6.3l0.1-0.9c-4.1 0.5-13.5 3.6-20.3 3.9l0.4-2.2c-5.7 2.1-16.3 0.7-20.4 0.8-9.2-1.3-23.4-5.7-35.9-3.2l-7.8-6.6-1.2 0.6s-3.9 19-5.8 40c-1.9 21.1-1.8 44.2 6 52.6l-0.3 2.2 3.2-0.2c3.8 1.2 5.7-1.3 5.3 0.9l-5.3-0.5c3.8 0.8 1.1 1.9-0.4 3.1 1.6 0.3 3.2 0.6 4.4 1.3 0.8-0.8-0.5-0.9-1.1-1.4 2.1-0.7 5.1-2.7 7.6-1.6 4 0.4 0.1 3.6 4.7 4 24.3 2.6 47.8 6.1 72.5 6.7 0.5 0.9-0.1 0.9-0.9 1.3 7.5-0.6 14 0 20.8-0.7 1.8 1.1 2.3 2.5 2.8 3.4-1.2-1.7 37.3-0.1 37.9 0.4z"/>
							
						
					
				
			</g>
		
		
			<defs>
				<rect id="SVGID_37_" x="72.4" y="69.7" width="1096" height="567"/>
			</defs>
			<clipPath id="SVGID_38_">
				<use width="100%" height="100%" xlink:href="#SVGID_37_"/>
			</clipPath>
			<g class="o0003st19" clip-path="url(#SVGID_38_)">
				
					
						
							
								<path class="o0003st14" d="m652 289c1.5 2.2 3.7 2.2 5.8 2.4-1.9-2.1-3.7-2.9-5.8-2.4z"/>
								<path class="o0003st14" d="m657.8 291.4"/>
								<path class="o0003st14" d="m1063.9 181.8h-1.8c0.5 0.1 1.2 0.2 1.8 0z"/>
								<path class="o0003st14" d="m756.5 289.3 0.1-4c4.8-0.3 1.7 4.5 6.1 3.2 1.4-5.7 7.4 0.2 8.8-2.9 0 0.5 2.2 0.5 2.1 2.3 0.5-3.1 2.2-0.8 3.5-1.7 0.5-0.9-0.4-0.9-0.8-1.8l3.1-1.2c1.3 0.9 1.7 2.7 0.4 3.1 2.1 0.2 6.1 0.4 11.1 0.6s11 0.3 17 0.5 12 0.2 17.1 0.2c5.1-0.1 9.2-0.2 11.4-0.6-1.2-2.3-3.9-0.7-5-4.3 2.3-2.1 3.5 0.7 4.5-1.5 1 5.4 5.2 1.2 7 6.7l0.6-3.1 1.2 1.9c10.3-3.3 2.3-1.6 11.5-1 5.3-0.5 7.8-4.7 10.7-3.2-0.4 0-1.6-1.9-0.2-2.7 0.2 2.7 3.7-1.9 4.3 0.8 1.3-0.3 5.7 0 4.2-3.7 0.7 1.8 4.6 2.6 2.3 4.2 1.3 0.1 2.6 0.7 3.5-0.1l-1.7-1.1c4.4-0.5 6.8 2.4 9.7-0.9l-1.6-1.5c2.7-0.2 4.9-0.4 5.9 3.2l-2.7 1.1c4.4 0 7-0.2 10.7-2.1l-1.3-0.1c2.4-1.8 9.7-3.2 17-4.8 3.6-0.8 7.3-1.6 10.3-2.5s5.4-1.8 6.5-2.9l-1.9-2.9 3.8-2.2c-0.4-0.1-2.2 9.1-2.5 8.2h11.2 8.3c2.9 0 6 0.1 9.1 0.2 6.1 0.2 12.3 0.4 17.3 0.8s9 0.9 10.8 1.6c2.8 1.8 0.2 4.5 0.1 5 3.7-0.8 1.8-2.9 4.8-2.4 0.8 0.6-0.3 2.2-0.8 2.6 1.4-0.2 2.5 0.8 2.7-0.5-1.6-1.1-0.6-4.6-1.2-6.9l3.9 0.6-0.3 2.2c0.9 0.1 2.7-5.9 6.5-4.4 6.5 1.5 13.6 1.4 20.2 2.5-0.2 1.3-1.7 2-3.1 2.6 0.9 0.1 2.2-0.1 3 0.9-1.4-2.5 2.9-1.3 1.8-2.4 5.3-5 11.1 0.7 15.7-2.6 0.4-2.4 4.9-23 9.4-43.7s9.1-41.5 9.4-44.4c1.4 0.2 2.7 0.5 3.1 1-0.2-1.4-2.9-2.3-4.4-1.7l-0.6 3.1c-3.5 0.7-0.6-1.9-3.9-2 0.1-2.5 3.2-2.8 5.8-2.7-2.3-0.5-4.5-2.6-5.8 0-2.1-1.3 0.6-3.1-2-4.4-2 0.5-4.8 2.8-6.8 1l0.1-0.4c-5.1-3.2-8.6 3-13.2 0l0.6-0.8c-1.6-1.6-5.2 0-8.2-1.8 0.8 0.6 1.5 2.5-0.4 2.6-3.5-1.9-6.1-0.5-8.5-2.7l-2.7 2.3c-3.1-0.4-8.6-0.7-15.2-0.9s-14.4-0.4-22.2-0.4-15.6-0.1-22.2 0-12.1 0.1-15.2 0.1l0.5-0.4c-2.4 0-5.1 0.1-8.1 0.1h-9.5c-6.7 0-14.1-0.1-21.4 0.1-7.4 0.2-14.8 0.4-21.5 0.8-6.8 0.4-13 1.1-17.9 1.9-3.1-2.4-7.3-1.9-10.5-2.6 1.8 1 1.2 2.8-0.2 2.7-9.7-0.1-0.6 1.7-10.5 2.9-2.8 0.6-7.6 0.9-13.4 1.1-5.8 0.1-12.6 0.2-19.3 0.1-3.4-0.1-6.7-0.2-10-0.3-3.2-0.1-6.3-0.2-9.2-0.3-5.7-0.3-10.3-0.6-12.8-1-5.2 3.8-12.1 1.5-17.2 4.1l0.5-0.9c-1.4 0.4-4.5 0.6-8.4 0.8-3.9 0.1-8.7 0.2-13.5 0.3-9.6 0.2-19.3 0.3-22.5 1.3l0.9 0.4c-5.5 2.7-5.1-1.3-9.7-2.1 0.9 4-3.8 6.7-5.6 7.2v-0.9c-2.8 0.9-8.8 5-13.4 6v-2.2c-3.6 2.8-11 2.5-13.8 3-6.5-0.3-16.7-3-24.9 1l-6.3-5.6-0.7 0.7s0.1 19.2 2 40.2c1.8 21 5.3 43.9 11.6 51.4l0.1 2.2 2.1-0.5c2.7 0.8 3.5-1.9 3.6 0.3l-3.5 0.1c2.6 0.3 1 1.7 0.2 3.1 1.1 0.1 2.1 0.2 3.1 0.8 0.4-0.9-0.5-0.9-0.9-1.3 1.3-0.9 2.9-3.2 4.7-2.4 2.6-0.1 0.6 3.5 3.6 3.4 8.1-0.1 16.1 0.2 24.1 0.1 4 0 8-0.1 12-0.3s8-0.4 12-0.9c0.4 0.9 0 0.9-0.4 1.3 4.8-1.4 9.1-1.5 13.5-2.8 1.3 0.9 1.8 2.2 2.2 3.1-0.4-0.9 5.7-1.8 11.9-2.5 3.1-0.3 6.3-0.6 8.7-0.8 2.2 0 3.8 0 4 0.1z"/>
							
						
					
				
			</g>
		
		
			<defs>
				<rect id="SVGID_39_" x="72.4" y="69.7" width="1096" height="567"/>
			</defs>
			<clipPath id="SVGID_40_">
				<use width="100%" height="100%" xlink:href="#SVGID_39_"/>
			</clipPath>
			<g class="o0003st20" clip-path="url(#SVGID_40_)">
				
					
						
							
								<path class="o0003st14" d="m588.3 265.7c1.6 2.4 4.5 2.7 7.2 3.1-2.1-2.3-4.3-3.4-7.2-3.1z"/>
								<path class="o0003st14" d="m595.5 268.9v0 0c-0.1-0.1 0-0.1 0 0z"/>
								<path class="o0003st14" d="m1119 164.2c-0.7 0-1.4 0.1-2.2 0.1 0.7 0.2 1.5 0.2 2.2-0.1z"/>
								<path class="o0003st14" d="m726.1 277.2 0.4-4c6.4 0 1.8 4.6 7.7 3.7 2.4-5.6 9.8 0.7 11.9-2.3-0.1 0.4 2.8 0.6 2.6 2.4 0.9-3.1 3-0.7 4.8-1.5 0.7-0.8-0.5-0.9-1-1.9l4.2-1c1.6 1 2 2.8 0.2 3.1 10.9 1.2 63.4 4.6 75.2 3.1-1.5-2.3-5.1-0.8-6.5-4.4 3.1-2 4.6 0.7 6-1.4 1.2 5.4 6.8 1.3 9.2 6.9l0.9-3.1 1.5 1.9c13.7-3.1 3.1-1.5 15.3-0.7 7-0.4 10.4-4.7 14.3-3.1-0.6 0-2.1-1.9-0.3-2.7 0.3 2.7 4.9-1.9 5.7 0.8 1.8-0.3 7.6 0.1 5.6-3.6 1 1.8 6.1 2.6 3 4.2 1.7 0.1 3.4 0.7 4.7-0.1l-2.2-1c5.9-0.5 9.1 2.4 12.9-0.9l-2.2-1.5c3.5-0.2 6.5-0.5 7.8 3.2l-3.6 1.1c5.8-0.1 9.3-0.3 14.2-2.2l-1.7-0.1c6.2-3.6 38.6-6.5 44.3-11l-2.6-2.8 4.9-2.4c-0.6 0-2.4 9.2-2.9 8.3 10.5-0.2 65.1-2.2 74.8-0.3 3.9 1.6 0.7 4.5 0.6 4.9 4.8-1 2.1-3 6.1-2.7 1.1 0.5-0.2 2.2-0.9 2.6 1.8-0.3 3.4 0.7 3.6-0.7-2.2-1-1.3-4.5-2.2-6.8l5.2 0.3-0.2 2.2c1.2 0.1 3-6.1 8.1-4.9 8.6 1 18 0.2 26.7 0.7-0.1 1.3-2 2.1-3.8 2.9 1.2 0.1 2.9-0.3 4 0.7-2.1-2.4 3.6-1.6 2-2.6 6.4-5.4 14.6-0.5 20.2-4.1 0.5-4.9 12.1-83.7 12.1-89.5 1.7 0.1 3.5 0.2 4 0.7-0.4-1.4-3.9-2-5.7-1.2l-0.3 3.1c-4.2 1.1-1-1.8-5.1-1.6-0.2-2.5 3.5-3.1 6.8-3.3-3-0.3-5.9-2.2-7.2 0.6-2.8-1.1 0.3-3.1-3.1-4.2-2.4 0.7-5.6 3.2-8.3 1.7v-0.4c-6.7-2.6-10.3 3.8-16.4 1.2l0.7-0.8c-2.2-1.5-6.4 0.5-10.3-1.1 1.1 0.5 2.1 2.4-0.3 2.7-4.5-1.6-7.6 0-10.8-2l-3.2 2.5c-15.6-0.5-77.4 2.9-93.1 3.2l0.6-0.4c-23.9 1.2-73 0.7-97.8 4-3.8-2.5-9.1-1.9-13.1-2.6 2.2 1 1.4 2.8-0.3 2.7-12.2-0.4-0.8 1.7-13.1 2.7-14.2 2.2-68.3-0.8-80.9-3-6.8 3.6-15.2 0.7-21.8 3l0.7-0.8c-7.1 1.3-47.3-2.4-55.6-1.2l1.1 0.5c-7.2 2.2-6.2-1.8-11.9-3.1 0.7 4.1-5.5 6.3-7.8 6.6l0.1-0.9c-3.6 0.6-11.6 4.1-17.5 4.6l0.3-2.2c-4.9 2.3-14.1 1.2-17.6 1.4-8-1-20.4-5-31.1-2.2l-6.9-6.4-1 0.6s-12.1 76.2 1.9 92.6l-0.3 2.2 2.8-0.3c3.4 1.1 4.9-1.4 4.7 0.8l-4.6-0.3c3.4 0.7 1 1.8-0.3 3.1 1.4 0.2 2.8 0.5 3.9 1.2 0.7-0.8-0.5-0.9-1-1.4 1.8-0.8 4.4-2.8 6.6-1.8 3.5 0.3 0.2 3.6 4.2 3.9 21.3 2 42 4.8 63.6 4.5 0.5 0.9-0.1 0.9-0.7 1.3 6.5-0.9 12.3-0.5 18.2-1.4 1.6 1 2.1 2.4 2.5 3.3-0.4-2.4 33.3-2.3 33.8-1.8z"/>
							
						
					
				
			</g>
		
		
		
		
		
		
		
	</g>

<g id="NUMÉRO" class="o0003st29" transform="translate(-526.08 -156.2)">
	<text class="o0003st30 st31 st32" transform="translate(477.02 622.5)">N</text>
	<text class="o0003st30 st31 st33" transform="translate(498.68 613.84)">°</text>
	<text class="o0003st30 st31 st32" transform="translate(504.74 622.5)">999 999</text>
</g>
<g id="REPÈRES_1_" class="o0003st29" transform="translate(-526.08 -156.2)">
	<g class="o0003st30">
		
			<line class="o0003st34" x1="-12.9" x2="-11.4" y1="70.9" y2="70.9"/>
			<line class="o0003st35" x1="-8.4" x2="2" y1="70.9" y2="70.9"/>
			<line class="o0003st36" x1="3.5" x2="1235.1" y1="70.9" y2="70.9"/>
			<line class="o0003st34" x1="1236.6" x2="1238.1" y1="70.9" y2="70.9"/>
		
	</g>
	<g class="o0003st30">
		
			<line class="o0003st34" x1="1.9" x2="3.4" y1="637.7" y2="637.7"/>
			<line class="o0003st37" x1="6.4" x2="16.8" y1="637.7" y2="637.7"/>
			<line class="o0003st38" x1="18.3" x2="1234.9" y1="637.7" y2="637.7"/>
			<line class="o0003st34" x1="1236.4" x2="1237.9" y1="637.7" y2="637.7"/>
		
	</g>
	<g class="o0003st30">
		
			<line class="o0003st34" x1="1168.3" x2="1168.3" y1="2.1" y2="3.6"/>
			<line class="o0003st39" x1="1168.3" x2="1168.3" y1="6.6" y2="17.2"/>
			<line class="o0003st40" x1="1168.3" x2="1168.3" y1="18.7" y2="704.5"/>
			<line class="o0003st34" x1="1168.3" x2="1168.3" y1="706" y2="707.5"/>
		
	</g>
	<polygon class="o0003st41" points="682.4 153.1 681.1 153.1"/>
	<g class="o0003st30">
		
			<line class="o0003st34" x1="413" x2="413" y1="2.1" y2="5.1"/>
			<line class="o0003st42" x1="413" x2="413" y1="11.2" y2="20.3"/>
			<line class="o0003st43" x1="413" x2="413" y1="23.4" y2="701.4"/>
			<line class="o0003st34" x1="413" x2="413" y1="704.5" y2="707.5"/>
		
	</g>
	<g class="o0003st30">
		
			<line class="o0003st34" x1="461.1" x2="461.1" y1="1.1" y2="2.6"/>
			<line class="o0003st44" x1="461.1" x2="461.1" y1="5.6" y2="16.2"/>
			<line class="o0003st45" x1="461.1" x2="461.1" y1="17.7" y2="704.5"/>
			<line class="o0003st34" x1="461.1" x2="461.1" y1="706" y2="707.5"/>
		
	</g>
	<g class="o0003st30">
		
			<line class="o0003st34" x1="363.6" x2="363.6" y1="2.1" y2="3.6"/>
			<line class="o0003st39" x1="363.6" x2="363.6" y1="6.6" y2="17.2"/>
			<line class="o0003st40" x1="363.6" x2="363.6" y1="18.7" y2="704.5"/>
			<line class="o0003st34" x1="363.6" x2="363.6" y1="706" y2="707.5"/>
		
	</g>
</g>
</svg>
